<?xml version="1.0" encoding="UTF-8"?>
<!DOCTYPE svg PUBLIC "-//W3C//DTD SVG 1.1//EN" "http://www.w3.org/Graphics/SVG/1.1/DTD/svg11.dtd">
<!-- Creator: CorelDRAW 2021 (64-Bit) -->
<svg xmlns="http://www.w3.org/2000/svg" xml:space="preserve" width="2.37311in" height="2.37311in" version="1.1" style="shape-rendering:geometricPrecision; text-rendering:geometricPrecision; image-rendering:optimizeQuality; fill-rule:evenodd; clip-rule:evenodd"
viewBox="0 0 271.19 271.19"
 xmlns:xlink="http://www.w3.org/1999/xlink"
 xmlns:xodm="http://www.corel.com/coreldraw/odm/2003">
 <defs>
  <style type="text/css">
   <![CDATA[
    .fil0 {fill:#FEFEFE}
    .fil9 {fill:#0753F5}
    .fil11 {fill:#10006F}
    .fil1 {fill:#130028}
    .fil10 {fill:#1C55EC}
    .fil7 {fill:#25003B}
    .fil8 {fill:#380045}
    .fil5 {fill:#939293}
    .fil6 {fill:#A6A8A9}
    .fil3 {fill:#BFBEBF}
    .fil2 {fill:#D6D6D7}
    .fil4 {fill:#FBFBFB}
   ]]>
  </style>
 </defs>
 <g id="Layer_x0020_1">
  <metadata id="CorelCorpID_0Corel-Layer"/>
  <g id="_1481589772448">
   <circle class="fil0" cx="135.6" cy="135.6" r="135.6"/>
   <circle class="fil1" cx="135.6" cy="135.6" r="119.85"/>
   <g>
    <g>
     <path class="fil2" d="M69.27 230.2c-1.12,-0.9 -2.39,-2.11 -2.8,-2.45 -0.4,-0.15 -0.8,-0.31 -1.19,-0.48 1.31,1 2.64,1.98 3.99,2.93zm-43.09 -57.41c0.26,-0.43 0.62,-0.91 1.09,-1.49l-0.07 -2.23c-5.1,-8.9 -3.87,-25.22 -4.57,-36.77 -0.35,-5.86 1.07,-12.8 2.28,-19.25 1.17,-6.25 4.08,-11.41 4.13,-16.9 2.5,2.77 0.64,-0.27 1.62,3.24l-0.41 18.08c-1.13,7.1 -0.48,14.66 -0.21,21.88l3.37 -13.81c0.1,-0.03 0.4,-0.12 0.51,-0.16l4.82 -2.53c0.23,-0.12 0.52,-0.26 0.75,-0.38l4.86 -2.77c5.5,-3.41 4.34,-1.8 4.43,-6.41 3.58,0.86 5.27,1.33 7.86,0.09 6.76,-20.12 6.66,-15.5 13.76,-29.68 0.26,0.18 0.61,0.39 0.79,0.52 0.18,0.13 0.56,0.35 0.78,0.52 0.21,0.16 0.51,0.35 0.73,0.54 0.26,0.23 1,0.93 1.22,1.21 2.38,3.04 0.66,0.71 1.71,4.07 1.89,6.05 -0.09,1.59 4.46,6.04 0.17,0.17 0.4,0.39 0.56,0.57l7.38 9c0.16,0.19 0.35,0.44 0.49,0.64 1.56,2.2 1.98,4.47 2.99,6.93 5.22,12.8 9.89,7.78 10.39,18.78 5.36,0.64 3.44,2.03 9.72,2.32 0.17,6.14 0.6,7.47 2.41,9.59 4.78,5.61 2.58,4.92 4.92,5.71 1.06,5.7 -0.19,0.18 1.68,1.41 1.42,0.93 1.18,1.29 2.53,2.93 0,-21.63 -5.68,-31.89 -2.97,-53.01 0.9,-7.03 2.38,-10.77 2.46,-17.34 3.05,-2.8 0.14,1.13 1.21,-4.22l3.91 -11.87c4.83,-15.49 5.29,-12.38 10.87,-19.36l1.97 -4.83c1.96,1.89 8.48,-4.9 -2.21,10.65 -5.86,8.52 -6.86,12.15 -9.39,21.93l-4.34 28.38c0.25,4.05 1.33,14.6 2.8,17.3 4.44,8.13 0.44,4.98 4.11,10.21 6.67,9.47 -3.38,5.12 5.9,7.19 -3.71,-1.77 -3.03,1.48 -3.27,5.44 21.77,8.04 17.29,-0.31 32.3,18.81 0.14,0.18 0.36,0.42 0.51,0.6 2.2,2.71 0.54,0.32 2.38,3.02 6.09,8.93 2.35,3.95 5.78,10.44 1.38,2.61 2.92,4.12 3.75,7.41 7.63,0 19.76,0.99 26.81,-2 2.56,-1.08 4.29,-2.57 6.2,-3.72l7.36 -3.37c4.38,-2.03 23.89,1.42 27.64,-33.79 1.6,-14.99 -1,-21.56 -2.45,-34.47 2.71,13.81 6.52,47.93 0.1,58.09 -5.25,17.49 -9.46,26.79 -19.54,40.62 -2.22,3.04 -1.85,2.33 -4.5,4.4 -2.44,6.24 -8.2,9.69 -12.35,13.59 -6.01,5.65 -5.01,3.2 -7.62,5.54 0.05,0.32 0.09,0.62 0.14,0.9 30.43,-20.81 50.4,-55.79 50.4,-95.43 0,-63.81 -51.73,-115.54 -115.54,-115.54 -63.81,0 -115.54,51.73 -115.54,115.54 0,13.01 2.15,25.53 6.12,37.2z"/>
     <path class="fil1" d="M132.3 152.43c-2.58,1.87 -0.61,0.65 -4.47,1.14 -8.17,1.04 -0.53,1.94 -10.6,4.28 -5.88,1.37 -11.01,2.56 -16.81,3.79 -11.2,2.37 -23.73,5.82 -35.05,6.8l6.3 2.64c-7.51,2.14 -25.28,5.18 -32.85,5.38 1.28,4.01 -0.91,5.76 2.26,12.53 3.7,7.91 14.95,20.05 17.11,29.08l-1.62 1.8c2.78,2.61 5.68,5.07 8.71,7.4 0.39,0.17 0.79,0.33 1.19,0.48 13.03,4.92 30.08,2.73 43.65,-1.09 6.67,-1.88 11.13,-3.78 17.71,-6.17 6.6,-2.4 11.25,-5.18 17.07,-8.06 5.26,-3.16 13.4,-9.26 17.15,-10.53 3.57,-9.28 13.2,-3.27 -1.37,-33.26 -2.59,-5.33 -5.22,-12.1 -9.19,-14.84 -6.13,-4.23 -12.72,-0.3 -19.2,-1.37z"/>
     <path class="fil3" d="M27.2 169.07l1.17 -0.56c0.03,0 0.29,0.03 0.32,0.04 0.89,0.4 0.63,0.53 0.69,1.32 -1.44,-7.23 2.22,-2.06 2.26,-10.58 3.79,6.39 1.72,4.89 5.37,7.22 7.75,-7.28 9.77,-13.52 20.04,-17.92 -0.32,-8.44 -1.77,-19.62 0.28,-27.18 2.22,2.03 5.47,1.28 10.8,1.32 0.48,1.91 1.25,4.08 2.06,5.39 5.22,8.51 4.01,-1.3 8.61,6.63 1.85,3.18 -1.49,2.77 4.74,4.17l0.28 10.53 3.76 1.84c1.35,0.68 1.98,1.08 3.5,1.93 7.52,4.23 30.34,1.97 32.1,1.25 -1.35,-1.63 -1.12,-2 -2.53,-2.93 -1.87,-1.23 -0.62,4.29 -1.68,-1.41 -2.34,-0.8 -0.14,-0.1 -4.92,-5.71 -1.81,-2.12 -2.24,-3.45 -2.41,-9.59 -6.28,-0.29 -4.36,-1.68 -9.72,-2.32 -0.51,-11 -5.17,-5.98 -10.39,-18.78 -1,-2.46 -1.42,-4.73 -2.99,-6.93 -0.14,-0.2 -0.34,-0.45 -0.49,-0.64l-7.38 -9c-0.16,-0.18 -0.39,-0.4 -0.56,-0.57 -4.55,-4.45 -2.58,0.01 -4.46,-6.04 -1.05,-3.36 0.67,-1.03 -1.71,-4.07 -0.22,-0.28 -0.96,-0.98 -1.22,-1.21 -0.21,-0.19 -0.52,-0.38 -0.73,-0.54 -0.21,-0.17 -0.6,-0.39 -0.78,-0.52 -0.18,-0.13 -0.53,-0.34 -0.79,-0.52 -7.1,14.18 -7.01,9.55 -13.76,29.68 -2.6,1.24 -4.28,0.76 -7.86,-0.09 -0.1,4.61 1.07,2.99 -4.43,6.41l-4.86 2.77c-0.23,0.12 -0.52,0.25 -0.75,0.38l-4.82 2.53c-0.11,0.04 -0.41,0.13 -0.51,0.16l-3.37 13.81c-0.27,-7.22 -0.92,-14.77 0.21,-21.88l0.41 -18.08c-0.98,-3.51 0.88,-0.47 -1.62,-3.24 -0.05,5.49 -2.96,10.65 -4.13,16.9 -1.21,6.45 -2.63,13.39 -2.28,19.25 0.7,11.56 -0.52,27.88 4.57,36.77z"/>
     <path class="fil4" d="M165.32 69.63c3.85,4.78 -1.87,4.4 4.36,6.39l-23.64 0.68 -0.39 2.66c0.17,37.42 4.82,51.47 35.17,56.41 2.56,0.59 1.87,0.84 4.6,0.86 3.84,0.03 1.93,0.49 3.58,-0.97l-1.01 6.53c0.47,-0.22 0.84,-0.93 0.92,-0.73l1.67 1.85c2.55,-1.13 2.98,1.76 2.67,-4.33 0.57,5.52 0.89,8.19 5.38,11.07 -5.98,-15 -7.93,-30.16 -5.09,-46.69 1.32,-7.67 3.8,-14.44 6.91,-19.25 0.33,-0.51 2.32,-2.98 3.07,-3.63 1.58,-1.37 2.44,-1.85 4.3,-2.6 5.04,-2.04 6.89,-0.99 11.97,-0.85 -1.72,-1.62 -1.13,-2.04 -6.78,-2.37 2.02,-0.29 4.59,1.93 0.76,-1.02 -1.28,-0.98 -0.08,-0.69 -3.03,-0.86 5.27,-1.36 3.49,-0.04 2.93,-1.99 -3.86,-1.17 -10.18,-1.29 -15.91,-7.82 -0.16,-0.18 -0.38,-0.47 -0.52,-0.65l-1.02 -1.4c-16.08,-0.08 -15.96,-1.84 -22.43,5.19 -2.96,3.21 -2.63,3.5 -8.48,3.52z"/>
     <path class="fil5" d="M144.91 212.43c-5.83,2.89 -10.48,5.66 -17.07,8.06 -6.58,2.39 -11.04,4.29 -17.71,6.17 -13.58,3.82 -30.62,6.01 -43.65,1.09 0.4,0.34 1.67,1.55 2.8,2.45 18.77,13.19 41.64,20.93 66.33,20.93 24.16,0 46.59,-7.42 65.14,-20.11 -0.05,-0.28 -0.09,-0.57 -0.14,-0.9 2.61,-2.34 1.61,0.11 7.62,-5.54 4.14,-3.9 9.9,-7.36 12.35,-13.59 0.4,-3.38 2.12,0.45 -0.68,-1.9 -0.82,3.68 -4.94,6.65 -8.31,9.02 -2.43,1.72 -4.23,1.5 -6.29,2.49 -0.12,0.06 -0.4,0.21 -0.52,0.27 -0.13,0.07 -0.42,0.23 -0.57,0.3l-2.71 1.4c-6.41,3.47 -1.69,2.47 -9.77,5.63 -7.54,2.95 -10.5,3.1 -20.64,2.97l-23.89 -4.51c-6.2,-5.08 -0.42,-0.13 -8.6,-4.89l3.13 -6.17c2.62,-2.55 1.9,-3.51 4.32,-0.81 -3.26,0 -0.06,0.5 -1.16,-2.37z"/>
     <path class="fil3" d="M122.65 84.14c3.41,2.98 1.85,-1.27 2.47,5.46 0.26,2.79 -5.34,17.37 0.3,50.71 1.13,6.66 -0.11,9.9 6.88,12.12 6.48,1.07 13.07,-2.85 19.2,1.37 3.97,2.74 6.6,9.5 9.19,14.84 14.58,29.99 4.95,23.98 1.37,33.26 -0.38,0.93 -0.77,1.74 -1.22,2.64l-1.68 3.18c0.27,0.18 0.68,0.12 0.82,0.54 0.83,2.52 8.82,4.45 11.34,4.78l25 1.18c7.71,-0.69 7.85,-4.02 17.24,-9.17 2.02,-1.11 0.32,0.41 2.67,-1.96 1.54,-1.55 0.92,-1.33 1.9,-2.46 3.41,-3.92 1.63,-1.1 4.89,-3.57 1.43,-1.08 3.28,-3.55 4.17,-4.87 7.66,-11.44 6.6,-4.1 11.48,-14.4 1.05,-2.22 1.68,-3.61 2.59,-6.11 1.37,-3.79 1.16,-4.11 3.36,-5.69 6.42,-10.16 2.6,-44.29 -0.1,-58.09 1.45,12.91 4.04,19.49 2.45,34.47 -3.75,35.21 -23.26,31.76 -27.64,33.79l-7.36 3.37c-1.91,1.15 -3.64,2.63 -6.2,3.72 -7.06,2.99 -19.18,2 -26.81,2 -0.83,-3.3 -2.37,-4.8 -3.75,-7.41 -3.42,-6.49 0.31,-1.52 -5.78,-10.44 -1.84,-2.7 -0.18,-0.31 -2.38,-3.02 -0.15,-0.18 -0.36,-0.42 -0.51,-0.6 -15.01,-19.12 -10.53,-10.77 -32.3,-18.81 0.24,-3.97 -0.44,-7.22 3.27,-5.44 -9.28,-2.08 0.77,2.28 -5.9,-7.19 -3.68,-5.22 0.32,-2.08 -4.11,-10.21 -1.48,-2.7 -2.55,-13.25 -2.8,-17.3l4.34 -28.38c2.53,-9.78 3.53,-13.41 9.39,-21.93 10.69,-15.55 4.17,-8.76 2.21,-10.65l-1.97 4.83c-5.58,6.99 -6.04,3.87 -10.87,19.36l-3.91 11.87c-1.08,5.35 1.84,1.42 -1.21,4.22z"/>
     <path class="fil6" d="M123.16 154.49c-1.76,0.72 -24.58,2.98 -32.1,-1.25 -1.51,-0.85 -2.15,-1.25 -3.5,-1.93l-3.76 -1.84 -0.28 -10.53c-6.23,-1.41 -2.89,-0.99 -4.74,-4.17 -4.6,-7.93 -3.39,1.89 -8.61,-6.63 -0.8,-1.31 -1.58,-3.48 -2.06,-5.39 -5.33,-0.04 -8.58,0.71 -10.8,-1.32 -2.05,7.55 -0.6,18.73 -0.28,27.18 -10.27,4.4 -12.29,10.64 -20.04,17.92 -3.65,-2.33 -1.58,-0.83 -5.37,-7.22 -0.04,8.52 -3.69,3.35 -2.26,10.58 -0.05,-0.79 0.2,-0.92 -0.69,-1.32 -0.03,-0.01 -0.29,-0.04 -0.32,-0.04l-1.17 0.56 0.07 2.23c13.96,-0.02 23.35,-0.14 38.1,-2.87 11.32,-0.98 23.85,-4.43 35.05,-6.8 5.81,-1.23 10.94,-2.42 16.81,-3.79 10.06,-2.34 2.42,-3.24 10.6,-4.28 3.86,-0.49 1.89,0.74 4.47,-1.14 -6.99,-2.23 -5.75,-5.46 -6.88,-12.12 -5.64,-33.33 -0.04,-47.91 -0.3,-50.71 -0.62,-6.73 0.94,-2.48 -2.47,-5.46 -0.08,6.58 -1.56,10.31 -2.46,17.34 -2.71,21.12 2.97,31.38 2.97,53.01z"/>
     <path class="fil4" d="M216.95 153.62c0.22,-0.55 0.31,-1.42 0.31,-1.42l1.82 -3.12c0.06,-0.12 0.21,-0.41 0.26,-0.54 0.04,-0.09 0.39,-1.74 0.67,-2.5 8.07,-1.03 4.2,-0.03 13.53,0.35 -11.3,-1.46 -16.09,-4.94 -18.43,-21.95 -0.96,-6.96 0.26,-12.63 2.23,-17.68 3.13,-8.04 7.73,-7.34 15.97,-4.93 -3.14,3.56 -1.99,2.98 -9.81,2.98 -2.07,3.23 -3.26,5.29 -3.41,10.86 -0.11,3.78 0.2,11.1 1.42,14.5 0.26,0.73 5.52,7.81 6.29,8.52 3.55,3.3 4.14,2.65 8.79,0.58 1.93,2.19 0.57,-0.88 1.46,2.18 1,3.42 -0.01,0.62 -0.37,0.65 2.45,-5.31 3.37,-10.86 3.1,-18.82l-5.93 -26.44c-1.07,-2.77 -19.8,-27.08 -32.33,3.47 -4.36,10.64 -1.33,30.02 3.61,40.63 2.37,5.09 5.21,11.15 10.83,12.69z"/>
     <path class="fil6" d="M162.06 201.9c-3.75,1.27 -11.89,7.37 -17.15,10.53 1.1,2.86 -2.1,2.37 1.16,2.37 -2.42,-2.7 -1.7,-1.74 -4.32,0.81l-3.13 6.17c8.18,4.76 2.4,-0.19 8.6,4.89l23.89 4.51c10.13,0.14 13.1,-0.02 20.64,-2.97 8.08,-3.16 3.35,-2.15 9.77,-5.63l2.71 -1.4c0.14,-0.07 0.43,-0.23 0.57,-0.3 0.12,-0.06 0.4,-0.21 0.52,-0.27 2.05,-0.99 3.85,-0.78 6.29,-2.49 3.37,-2.37 7.49,-5.34 8.31,-9.02 2.8,2.36 1.08,-1.47 0.68,1.9 2.65,-2.06 2.28,-1.35 4.5,-4.4 10.08,-13.83 14.29,-23.13 19.54,-40.62 -2.21,1.58 -1.99,1.9 -3.36,5.69 -0.91,2.5 -1.54,3.89 -2.59,6.11 -4.88,10.3 -3.83,2.96 -11.48,14.4 -0.88,1.32 -2.74,3.79 -4.17,4.87 -3.26,2.47 -1.48,-0.35 -4.89,3.57 -0.98,1.13 -0.36,0.9 -1.9,2.46 -2.35,2.37 -0.65,0.85 -2.67,1.96 -9.38,5.15 -9.52,8.48 -17.24,9.17l-25 -1.18c-2.52,-0.33 -10.52,-2.25 -11.34,-4.78 -0.14,-0.42 -0.54,-0.36 -0.82,-0.54l1.68 -3.18c0.45,-0.89 0.84,-1.71 1.22,-2.64z"/>
     <path class="fil7" d="M114.43 173.74c-4.56,0.91 -10.75,0.71 -13.5,2.53 -6.82,4.51 -3,17.14 2.06,21.68 0.06,0.05 1.69,1.34 1.86,1.47 3.24,2.69 3.87,4.06 8.55,4.33 10.6,0.6 22.2,-13.89 10.31,-26.58 -2.27,-2.42 -1.01,-2.11 -4.45,-2.09 -3.66,0.02 0.82,1.02 -2.33,0.2l-1.18 -0.56c-0.22,-0.12 -1.03,-0.77 -1.32,-1z"/>
     <path class="fil8" d="M27.27 171.3c-0.47,0.58 -0.82,1.06 -1.09,1.49 6.17,18.14 16.72,34.25 30.39,47.08l1.62 -1.8c-2.16,-9.03 -13.42,-21.17 -17.11,-29.08 -3.16,-6.77 -0.98,-8.51 -2.26,-12.53 7.56,-0.2 25.34,-3.24 32.85,-5.38l-6.3 -2.64c-14.75,2.73 -24.13,2.85 -38.1,2.87z"/>
     <path class="fil9" d="M119.17 193.82c-1.39,-7.6 -3.54,-12.62 -12.58,-13.45 -1.51,10.53 0.45,15.02 12.58,13.45z"/>
     <path class="fil10" d="M63.1 199.62l8.81 0.28c-0.37,-18.07 -21.21,-16.07 -8.81,-0.28z"/>
     <path class="fil11" d="M119.17 193.82c-12.13,1.57 -14.09,-2.92 -12.58,-13.45l-4.57 0.97c-1.75,12.93 3.7,18.71 16.59,17.07l0.57 -4.58z"/>
    </g>
    <g>
     <path class="fil2" d="M69.27 230.2c-1.12,-0.9 -2.39,-2.11 -2.8,-2.45 -0.4,-0.15 -0.8,-0.31 -1.19,-0.48 1.31,1 2.64,1.98 3.99,2.93zm-43.09 -57.41c0.26,-0.43 0.62,-0.91 1.09,-1.49l-0.07 -2.23c-5.1,-8.9 -3.87,-25.22 -4.57,-36.77 -0.35,-5.86 1.07,-12.8 2.28,-19.25 1.17,-6.25 4.08,-11.41 4.13,-16.9 2.5,2.77 0.64,-0.27 1.62,3.24l-0.41 18.08c-1.13,7.1 -0.48,14.66 -0.21,21.88l3.37 -13.81c0.1,-0.03 0.4,-0.12 0.51,-0.16l4.82 -2.53c0.23,-0.12 0.52,-0.26 0.75,-0.38l4.86 -2.77c5.5,-3.41 4.34,-1.8 4.43,-6.41 3.58,0.86 5.27,1.33 7.86,0.09 6.76,-20.12 6.66,-15.5 13.76,-29.68 0.26,0.18 0.61,0.39 0.79,0.52 0.18,0.13 0.56,0.35 0.78,0.52 0.21,0.16 0.51,0.35 0.73,0.54 0.26,0.23 1,0.93 1.22,1.21 2.38,3.04 0.66,0.71 1.71,4.07 1.89,6.05 -0.09,1.59 4.46,6.04 0.17,0.17 0.4,0.39 0.56,0.57l7.38 9c0.16,0.19 0.35,0.44 0.49,0.64 1.56,2.2 1.98,4.47 2.99,6.93 5.22,12.8 9.89,7.78 10.39,18.78 5.36,0.64 3.44,2.03 9.72,2.32 0.17,6.14 0.6,7.47 2.41,9.59 4.78,5.61 2.58,4.92 4.92,5.71 1.06,5.7 -0.19,0.18 1.68,1.41 1.42,0.93 1.18,1.29 2.53,2.93 0,-21.63 -5.68,-31.89 -2.97,-53.01 0.9,-7.03 2.38,-10.77 2.46,-17.34 3.05,-2.8 0.14,1.13 1.21,-4.22l3.91 -11.87c4.83,-15.49 5.29,-12.38 10.87,-19.36l1.97 -4.83c1.96,1.89 8.48,-4.9 -2.21,10.65 -5.86,8.52 -6.86,12.15 -9.39,21.93l-4.34 28.38c0.25,4.05 1.33,14.6 2.8,17.3 4.44,8.13 0.44,4.98 4.11,10.21 6.67,9.47 -3.38,5.12 5.9,7.19 -3.71,-1.77 -3.03,1.48 -3.27,5.44 21.77,8.04 17.29,-0.31 32.3,18.81 0.14,0.18 0.36,0.42 0.51,0.6 2.2,2.71 0.54,0.32 2.38,3.02 6.09,8.93 2.35,3.95 5.78,10.44 1.38,2.61 2.92,4.12 3.75,7.41 7.63,0 19.76,0.99 26.81,-2 2.56,-1.08 4.29,-2.57 6.2,-3.72l7.36 -3.37c4.38,-2.03 23.89,1.42 27.64,-33.79 1.6,-14.99 -1,-21.56 -2.45,-34.47 2.71,13.81 6.52,47.93 0.1,58.09 -5.25,17.49 -9.46,26.79 -19.54,40.62 -2.22,3.04 -1.85,2.33 -4.5,4.4 -2.44,6.24 -8.2,9.69 -12.35,13.59 -6.01,5.65 -5.01,3.2 -7.62,5.54 0.05,0.32 0.09,0.62 0.14,0.9 30.43,-20.81 50.4,-55.79 50.4,-95.43 0,-63.81 -51.73,-115.54 -115.54,-115.54 -63.81,0 -115.54,51.73 -115.54,115.54 0,13.01 2.15,25.53 6.12,37.2z"/>
     <path class="fil1" d="M132.3 152.43c-2.58,1.87 -0.61,0.65 -4.47,1.14 -8.17,1.04 -0.53,1.94 -10.6,4.28 -5.88,1.37 -11.01,2.56 -16.81,3.79 -11.2,2.37 -23.73,5.82 -35.05,6.8l6.3 2.64c-7.51,2.14 -25.28,5.18 -32.85,5.38 1.28,4.01 -0.91,5.76 2.26,12.53 3.7,7.91 14.95,20.05 17.11,29.08l-1.62 1.8c2.78,2.61 5.68,5.07 8.71,7.4 0.39,0.17 0.79,0.33 1.19,0.48 13.03,4.92 30.08,2.73 43.65,-1.09 6.67,-1.88 11.13,-3.78 17.71,-6.17 6.6,-2.4 11.25,-5.18 17.07,-8.06 5.26,-3.16 13.4,-9.26 17.15,-10.53 3.57,-9.28 13.2,-3.27 -1.37,-33.26 -2.59,-5.33 -5.22,-12.1 -9.19,-14.84 -6.13,-4.23 -12.72,-0.3 -19.2,-1.37z"/>
     <path class="fil3" d="M27.2 169.07l1.17 -0.56c0.03,0 0.29,0.03 0.32,0.04 0.89,0.4 0.63,0.53 0.69,1.32 -1.44,-7.23 2.22,-2.06 2.26,-10.58 3.79,6.39 1.72,4.89 5.37,7.22 7.75,-7.28 9.77,-13.52 20.04,-17.92 -0.32,-8.44 -1.77,-19.62 0.28,-27.18 2.22,2.03 5.47,1.28 10.8,1.32 0.48,1.91 1.25,4.08 2.06,5.39 5.22,8.51 4.01,-1.3 8.61,6.63 1.85,3.18 -1.49,2.77 4.74,4.17l0.28 10.53 3.76 1.84c1.35,0.68 1.98,1.08 3.5,1.93 7.52,4.23 30.34,1.97 32.1,1.25 -1.35,-1.63 -1.12,-2 -2.53,-2.93 -1.87,-1.23 -0.62,4.29 -1.68,-1.41 -2.34,-0.8 -0.14,-0.1 -4.92,-5.71 -1.81,-2.12 -2.24,-3.45 -2.41,-9.59 -6.28,-0.29 -4.36,-1.68 -9.72,-2.32 -0.51,-11 -5.17,-5.98 -10.39,-18.78 -1,-2.46 -1.42,-4.73 -2.99,-6.93 -0.14,-0.2 -0.34,-0.45 -0.49,-0.64l-7.38 -9c-0.16,-0.18 -0.39,-0.4 -0.56,-0.57 -4.55,-4.45 -2.58,0.01 -4.46,-6.04 -1.05,-3.36 0.67,-1.03 -1.71,-4.07 -0.22,-0.28 -0.96,-0.98 -1.22,-1.21 -0.21,-0.19 -0.52,-0.38 -0.73,-0.54 -0.21,-0.17 -0.6,-0.39 -0.78,-0.52 -0.18,-0.13 -0.53,-0.34 -0.79,-0.52 -7.1,14.18 -7.01,9.55 -13.76,29.68 -2.6,1.24 -4.28,0.76 -7.86,-0.09 -0.1,4.61 1.07,2.99 -4.43,6.41l-4.86 2.77c-0.23,0.12 -0.52,0.25 -0.75,0.38l-4.82 2.53c-0.11,0.04 -0.41,0.13 -0.51,0.16l-3.37 13.81c-0.27,-7.22 -0.92,-14.77 0.21,-21.88l0.41 -18.08c-0.98,-3.51 0.88,-0.47 -1.62,-3.24 -0.05,5.49 -2.96,10.65 -4.13,16.9 -1.21,6.45 -2.63,13.39 -2.28,19.25 0.7,11.56 -0.52,27.88 4.57,36.77z"/>
     <path class="fil4" d="M165.32 69.63c3.85,4.78 -1.87,4.4 4.36,6.39l-23.64 0.68 -0.39 2.66c0.17,37.42 4.82,51.47 35.17,56.41 2.56,0.59 1.87,0.84 4.6,0.86 3.84,0.03 1.93,0.49 3.58,-0.97l-1.01 6.53c0.47,-0.22 0.84,-0.93 0.92,-0.73l1.67 1.85c2.55,-1.13 2.98,1.76 2.67,-4.33 0.57,5.52 0.89,8.19 5.38,11.07 -5.98,-15 -7.93,-30.16 -5.09,-46.69 1.32,-7.67 3.8,-14.44 6.91,-19.25 0.33,-0.51 2.32,-2.98 3.07,-3.63 1.58,-1.37 2.44,-1.85 4.3,-2.6 5.04,-2.04 6.89,-0.99 11.97,-0.85 -1.72,-1.62 -1.13,-2.04 -6.78,-2.37 2.02,-0.29 4.59,1.93 0.76,-1.02 -1.28,-0.98 -0.08,-0.69 -3.03,-0.86 5.27,-1.36 3.49,-0.04 2.93,-1.99 -3.86,-1.17 -10.18,-1.29 -15.91,-7.82 -0.16,-0.18 -0.38,-0.47 -0.52,-0.65l-1.02 -1.4c-16.08,-0.08 -15.96,-1.84 -22.43,5.19 -2.96,3.21 -2.63,3.5 -8.48,3.52z"/>
     <path class="fil5" d="M144.91 212.43c-5.83,2.89 -10.48,5.66 -17.07,8.06 -6.58,2.39 -11.04,4.29 -17.71,6.17 -13.58,3.82 -30.62,6.01 -43.65,1.09 0.4,0.34 1.67,1.55 2.8,2.45 18.77,13.19 41.64,20.93 66.33,20.93 24.16,0 46.59,-7.42 65.14,-20.11 -0.05,-0.28 -0.09,-0.57 -0.14,-0.9 2.61,-2.34 1.61,0.11 7.62,-5.54 4.14,-3.9 9.9,-7.36 12.35,-13.59 0.4,-3.38 2.12,0.45 -0.68,-1.9 -0.82,3.68 -4.94,6.65 -8.31,9.02 -2.43,1.72 -4.23,1.5 -6.29,2.49 -0.12,0.06 -0.4,0.21 -0.52,0.27 -0.13,0.07 -0.42,0.23 -0.57,0.3l-2.71 1.4c-6.41,3.47 -1.69,2.47 -9.77,5.63 -7.54,2.95 -10.5,3.1 -20.64,2.97l-23.89 -4.51c-6.2,-5.08 -0.42,-0.13 -8.6,-4.89l3.13 -6.17c2.62,-2.55 1.9,-3.51 4.32,-0.81 -3.26,0 -0.06,0.5 -1.16,-2.37z"/>
     <path class="fil3" d="M122.65 84.14c3.41,2.98 1.85,-1.27 2.47,5.46 0.26,2.79 -5.34,17.37 0.3,50.71 1.13,6.66 -0.11,9.9 6.88,12.12 6.48,1.07 13.07,-2.85 19.2,1.37 3.97,2.74 6.6,9.5 9.19,14.84 14.58,29.99 4.95,23.98 1.37,33.26 -0.38,0.93 -0.77,1.74 -1.22,2.64l-1.68 3.18c0.27,0.18 0.68,0.12 0.82,0.54 0.83,2.52 8.82,4.45 11.34,4.78l25 1.18c7.71,-0.69 7.85,-4.02 17.24,-9.17 2.02,-1.11 0.32,0.41 2.67,-1.96 1.54,-1.55 0.92,-1.33 1.9,-2.46 3.41,-3.92 1.63,-1.1 4.89,-3.57 1.43,-1.08 3.28,-3.55 4.17,-4.87 7.66,-11.44 6.6,-4.1 11.48,-14.4 1.05,-2.22 1.68,-3.61 2.59,-6.11 1.37,-3.79 1.16,-4.11 3.36,-5.69 6.42,-10.16 2.6,-44.29 -0.1,-58.09 1.45,12.91 4.04,19.49 2.45,34.47 -3.75,35.21 -23.26,31.76 -27.64,33.79l-7.36 3.37c-1.91,1.15 -3.64,2.63 -6.2,3.72 -7.06,2.99 -19.18,2 -26.81,2 -0.83,-3.3 -2.37,-4.8 -3.75,-7.41 -3.42,-6.49 0.31,-1.52 -5.78,-10.44 -1.84,-2.7 -0.18,-0.31 -2.38,-3.02 -0.15,-0.18 -0.36,-0.42 -0.51,-0.6 -15.01,-19.12 -10.53,-10.77 -32.3,-18.81 0.24,-3.97 -0.44,-7.22 3.27,-5.44 -9.28,-2.08 0.77,2.28 -5.9,-7.19 -3.68,-5.22 0.32,-2.08 -4.11,-10.21 -1.48,-2.7 -2.55,-13.25 -2.8,-17.3l4.34 -28.38c2.53,-9.78 3.53,-13.41 9.39,-21.93 10.69,-15.55 4.17,-8.76 2.21,-10.65l-1.97 4.83c-5.58,6.99 -6.04,3.87 -10.87,19.36l-3.91 11.87c-1.08,5.35 1.84,1.42 -1.21,4.22z"/>
     <path class="fil6" d="M123.16 154.49c-1.76,0.72 -24.58,2.98 -32.1,-1.25 -1.51,-0.85 -2.15,-1.25 -3.5,-1.93l-3.76 -1.84 -0.28 -10.53c-6.23,-1.41 -2.89,-0.99 -4.74,-4.17 -4.6,-7.93 -3.39,1.89 -8.61,-6.63 -0.8,-1.31 -1.58,-3.48 -2.06,-5.39 -5.33,-0.04 -8.58,0.71 -10.8,-1.32 -2.05,7.55 -0.6,18.73 -0.28,27.18 -10.27,4.4 -12.29,10.64 -20.04,17.92 -3.65,-2.33 -1.58,-0.83 -5.37,-7.22 -0.04,8.52 -3.69,3.35 -2.26,10.58 -0.05,-0.79 0.2,-0.92 -0.69,-1.32 -0.03,-0.01 -0.29,-0.04 -0.32,-0.04l-1.17 0.56 0.07 2.23c13.96,-0.02 23.35,-0.14 38.1,-2.87 11.32,-0.98 23.85,-4.43 35.05,-6.8 5.81,-1.23 10.94,-2.42 16.81,-3.79 10.06,-2.34 2.42,-3.24 10.6,-4.28 3.86,-0.49 1.89,0.74 4.47,-1.14 -6.99,-2.23 -5.75,-5.46 -6.88,-12.12 -5.64,-33.33 -0.04,-47.91 -0.3,-50.71 -0.62,-6.73 0.94,-2.48 -2.47,-5.46 -0.08,6.58 -1.56,10.31 -2.46,17.34 -2.71,21.12 2.97,31.38 2.97,53.01z"/>
     <path class="fil4" d="M216.95 153.62c0.22,-0.55 0.31,-1.42 0.31,-1.42l1.82 -3.12c0.06,-0.12 0.21,-0.41 0.26,-0.54 0.04,-0.09 0.39,-1.74 0.67,-2.5 8.07,-1.03 4.2,-0.03 13.53,0.35 -11.3,-1.46 -16.09,-4.94 -18.43,-21.95 -0.96,-6.96 0.26,-12.63 2.23,-17.68 3.13,-8.04 7.73,-7.34 15.97,-4.93 -3.14,3.56 -1.99,2.98 -9.81,2.98 -2.07,3.23 -3.26,5.29 -3.41,10.86 -0.11,3.78 0.2,11.1 1.42,14.5 0.26,0.73 5.52,7.81 6.29,8.52 3.55,3.3 4.14,2.65 8.79,0.58 1.93,2.19 0.57,-0.88 1.46,2.18 1,3.42 -0.01,0.62 -0.37,0.65 2.45,-5.31 3.37,-10.86 3.1,-18.82l-5.93 -26.44c-1.07,-2.77 -19.8,-27.08 -32.33,3.47 -4.36,10.64 -1.33,30.02 3.61,40.63 2.37,5.09 5.21,11.15 10.83,12.69z"/>
     <path class="fil6" d="M162.06 201.9c-3.75,1.27 -11.89,7.37 -17.15,10.53 1.1,2.86 -2.1,2.37 1.16,2.37 -2.42,-2.7 -1.7,-1.74 -4.32,0.81l-3.13 6.17c8.18,4.76 2.4,-0.19 8.6,4.89l23.89 4.51c10.13,0.14 13.1,-0.02 20.64,-2.97 8.08,-3.16 3.35,-2.15 9.77,-5.63l2.71 -1.4c0.14,-0.07 0.43,-0.23 0.57,-0.3 0.12,-0.06 0.4,-0.21 0.52,-0.27 2.05,-0.99 3.85,-0.78 6.29,-2.49 3.37,-2.37 7.49,-5.34 8.31,-9.02 2.8,2.36 1.08,-1.47 0.68,1.9 2.65,-2.06 2.28,-1.35 4.5,-4.4 10.08,-13.83 14.29,-23.13 19.54,-40.62 -2.21,1.58 -1.99,1.9 -3.36,5.69 -0.91,2.5 -1.54,3.89 -2.59,6.11 -4.88,10.3 -3.83,2.96 -11.48,14.4 -0.88,1.32 -2.74,3.79 -4.17,4.87 -3.26,2.47 -1.48,-0.35 -4.89,3.57 -0.98,1.13 -0.36,0.9 -1.9,2.46 -2.35,2.37 -0.65,0.85 -2.67,1.96 -9.38,5.15 -9.52,8.48 -17.24,9.17l-25 -1.18c-2.52,-0.33 -10.52,-2.25 -11.34,-4.78 -0.14,-0.42 -0.54,-0.36 -0.82,-0.54l1.68 -3.18c0.45,-0.89 0.84,-1.71 1.22,-2.64z"/>
     <path class="fil7" d="M114.43 173.74c-4.56,0.91 -10.75,0.71 -13.5,2.53 -6.82,4.51 -3,17.14 2.06,21.68 0.06,0.05 1.69,1.34 1.86,1.47 3.24,2.69 3.87,4.06 8.55,4.33 10.6,0.6 22.2,-13.89 10.31,-26.58 -2.27,-2.42 -1.01,-2.11 -4.45,-2.09 -3.66,0.02 0.82,1.02 -2.33,0.2l-1.18 -0.56c-0.22,-0.12 -1.03,-0.77 -1.32,-1z"/>
     <path class="fil8" d="M27.27 171.3c-0.47,0.58 -0.82,1.06 -1.09,1.49 6.17,18.14 16.72,34.25 30.39,47.08l1.62 -1.8c-2.16,-9.03 -13.42,-21.17 -17.11,-29.08 -3.16,-6.77 -0.98,-8.51 -2.26,-12.53 7.56,-0.2 25.34,-3.24 32.85,-5.38l-6.3 -2.64c-14.75,2.73 -24.13,2.85 -38.1,2.87z"/>
     <path class="fil9" d="M119.17 193.82c-1.39,-7.6 -3.54,-12.62 -12.58,-13.45 -1.51,10.53 0.45,15.02 12.58,13.45z"/>
     <path class="fil10" d="M63.1 199.62l8.81 0.28c-0.37,-18.07 -21.21,-16.07 -8.81,-0.28z"/>
     <path class="fil11" d="M119.17 193.82c-12.13,1.57 -14.09,-2.92 -12.58,-13.45l-4.57 0.97c-1.75,12.93 3.7,18.71 16.59,17.07l0.57 -4.58z"/>
    </g>
   </g>
  </g>
 </g>
</svg>
