<?xml version="1.0" encoding="UTF-8"?>
<!DOCTYPE svg PUBLIC "-//W3C//DTD SVG 1.1//EN" "http://www.w3.org/Graphics/SVG/1.1/DTD/svg11.dtd">
<!-- Creator: CorelDRAW 2021 (64-Bit) -->
<svg xmlns="http://www.w3.org/2000/svg" xml:space="preserve" width="2.37311in" height="2.37311in" version="1.1" style="shape-rendering:geometricPrecision; text-rendering:geometricPrecision; image-rendering:optimizeQuality; fill-rule:evenodd; clip-rule:evenodd"
viewBox="0 0 270.69 270.69"
 xmlns:xlink="http://www.w3.org/1999/xlink"
 xmlns:xodm="http://www.corel.com/coreldraw/odm/2003">
 <defs>
  <style type="text/css">
   <![CDATA[
    .fil0 {fill:#FEFEFE}
    .fil9 {fill:#0753F5}
    .fil11 {fill:#10006F}
    .fil1 {fill:#130028}
    .fil10 {fill:#1C55EC}
    .fil7 {fill:#25003B}
    .fil8 {fill:#380045}
    .fil5 {fill:#939293}
    .fil6 {fill:#A6A8A9}
    .fil3 {fill:#BFBEBF}
    .fil2 {fill:#D6D6D7}
    .fil4 {fill:#FBFBFB}
   ]]>
  </style>
 </defs>
 <g id="Layer_x0020_1">
  <metadata id="CorelCorpID_0Corel-Layer"/>
  <g id="_1481592664256">
   <circle class="fil0" cx="135.34" cy="135.34" r="135.34"/>
   <circle class="fil1" cx="135.34" cy="135.34" r="119.63"/>
   <g>
    <g>
     <path class="fil2" d="M201.55 229.77c1.12,-0.9 2.39,-2.1 2.79,-2.44 0.4,-0.15 0.8,-0.31 1.19,-0.48 -1.31,1 -2.63,1.98 -3.98,2.93zm43.01 -57.3c-0.26,-0.43 -0.62,-0.91 -1.08,-1.49l0.07 -2.23c5.09,-8.88 3.87,-25.17 4.56,-36.7 0.35,-5.84 -1.07,-12.78 -2.27,-19.21 -1.17,-6.24 -4.07,-11.39 -4.12,-16.87 -2.5,2.76 -0.64,-0.27 -1.62,3.23l0.41 18.05c1.13,7.09 0.48,14.63 0.21,21.84l-3.36 -13.78c-0.1,-0.03 -0.4,-0.12 -0.51,-0.16l-4.81 -2.52c-0.23,-0.12 -0.51,-0.25 -0.75,-0.37l-4.85 -2.76c-5.49,-3.41 -4.33,-1.8 -4.42,-6.39 -3.57,0.85 -5.26,1.33 -7.85,0.09 -6.74,-20.09 -6.65,-15.47 -13.74,-29.62 -0.26,0.18 -0.61,0.38 -0.79,0.52 -0.18,0.13 -0.56,0.35 -0.77,0.52 -0.21,0.16 -0.51,0.35 -0.73,0.54 -0.26,0.23 -1,0.93 -1.22,1.21 -2.37,3.03 -0.66,0.71 -1.7,4.06 -1.88,6.04 0.09,1.59 -4.46,6.03 -0.17,0.17 -0.4,0.39 -0.56,0.57l-7.36 8.98c-0.15,0.19 -0.35,0.44 -0.49,0.64 -1.56,2.19 -1.98,4.46 -2.98,6.91 -5.21,12.78 -9.87,7.76 -10.37,18.75 -5.35,0.64 -3.43,2.02 -9.71,2.31 -0.17,6.13 -0.6,7.46 -2.4,9.57 -4.77,5.6 -2.57,4.91 -4.91,5.7 -1.06,5.69 0.19,0.18 -1.68,1.4 -1.41,0.93 -1.18,1.29 -2.53,2.92 0,-21.59 5.67,-31.83 2.97,-52.91 -0.9,-7.02 -2.38,-10.75 -2.46,-17.31 -3.04,-2.8 -0.14,1.12 -1.21,-4.21l-3.9 -11.85c-4.82,-15.47 -5.28,-12.35 -10.85,-19.33l-1.97 -4.82c-1.96,1.89 -8.46,-4.89 2.2,10.63 5.84,8.5 6.84,12.12 9.37,21.88l4.33 28.33c-0.25,4.04 -1.32,14.57 -2.8,17.27 -4.43,8.11 -0.44,4.97 -4.11,10.19 -6.65,9.45 3.37,5.11 -5.89,7.18 3.7,-1.77 3.02,1.48 3.27,5.43 -21.73,8.02 -17.25,-0.31 -32.24,18.77 -0.14,0.18 -0.36,0.42 -0.51,0.6 -2.19,2.71 -0.53,0.32 -2.37,3.02 -6.08,8.91 -2.35,3.94 -5.77,10.42 -1.38,2.61 -2.91,4.11 -3.74,7.4 -7.61,0 -19.72,0.99 -26.76,-1.99 -2.56,-1.08 -4.29,-2.57 -6.19,-3.71l-7.34 -3.37c-4.37,-2.03 -23.84,1.41 -27.59,-33.73 -1.6,-14.96 1,-21.52 2.44,-34.41 -2.7,13.78 -6.51,47.84 -0.1,57.99 5.24,17.45 9.45,26.74 19.5,40.54 2.21,3.04 1.85,2.33 4.49,4.39 2.44,6.22 8.19,9.68 12.33,13.57 6,5.64 5,3.19 7.61,5.53 -0.05,0.32 -0.09,0.62 -0.14,0.89 -30.37,-20.77 -50.31,-55.68 -50.31,-95.25 0,-63.69 51.63,-115.32 115.32,-115.32 63.69,0 115.32,51.63 115.32,115.32 0,12.99 -2.15,25.48 -6.11,37.13z"/>
     <path class="fil1" d="M138.64 152.15c2.58,1.87 0.61,0.65 4.47,1.14 8.16,1.04 0.53,1.93 10.58,4.27 5.86,1.37 10.99,2.56 16.78,3.78 11.18,2.36 23.69,5.81 34.98,6.79l-6.29 2.63c7.49,2.14 25.24,5.17 32.78,5.37 -1.27,4.01 0.9,5.75 -2.25,12.5 -3.69,7.9 -14.92,20.02 -17.08,29.03l1.62 1.8c-2.77,2.6 -5.67,5.06 -8.69,7.38 -0.39,0.17 -0.79,0.33 -1.19,0.48 -13,4.91 -30.02,2.73 -43.57,-1.09 -6.66,-1.87 -11.11,-3.77 -17.68,-6.16 -6.59,-2.4 -11.23,-5.17 -17.04,-8.05 -5.25,-3.16 -13.38,-9.24 -17.12,-10.51 -3.57,-9.26 -13.18,-3.26 1.37,-33.2 2.59,-5.32 5.21,-12.08 9.17,-14.81 6.11,-4.22 12.69,-0.3 19.16,-1.37z"/>
     <path class="fil3" d="M243.54 168.76l-1.17 -0.56c-0.03,0 -0.29,0.03 -0.32,0.04 -0.89,0.4 -0.63,0.53 -0.69,1.32 1.43,-7.21 -2.22,-2.05 -2.25,-10.56 -3.78,6.38 -1.72,4.88 -5.36,7.21 -7.74,-7.27 -9.75,-13.5 -20,-17.89 0.32,-8.43 1.76,-19.59 -0.28,-27.13 -2.21,2.03 -5.46,1.28 -10.78,1.32 -0.48,1.9 -1.25,4.08 -2.05,5.38 -5.21,8.5 -4,-1.3 -8.6,6.62 -1.84,3.18 1.49,2.76 -4.73,4.17l-0.27 10.51 -3.75 1.84c-1.34,0.68 -1.98,1.08 -3.49,1.93 -7.51,4.22 -30.28,1.97 -32.04,1.25 1.35,-1.63 1.12,-1.99 2.53,-2.92 1.87,-1.23 0.62,4.29 1.68,-1.4 2.34,-0.8 0.14,-0.1 4.91,-5.7 1.8,-2.12 2.24,-3.45 2.4,-9.57 6.27,-0.29 4.36,-1.67 9.71,-2.31 0.5,-10.98 5.16,-5.97 10.37,-18.75 1,-2.45 1.42,-4.72 2.98,-6.91 0.14,-0.2 0.34,-0.45 0.49,-0.64l7.36 -8.98c0.16,-0.18 0.39,-0.4 0.56,-0.57 4.54,-4.44 2.57,0.01 4.46,-6.03 1.04,-3.35 -0.67,-1.03 1.7,-4.06 0.22,-0.28 0.96,-0.98 1.22,-1.21 0.21,-0.19 0.52,-0.38 0.73,-0.54 0.21,-0.17 0.6,-0.39 0.77,-0.52 0.18,-0.13 0.53,-0.34 0.79,-0.52 7.09,14.15 6.99,9.53 13.74,29.62 2.59,1.24 4.27,0.76 7.85,-0.09 0.1,4.6 -1.06,2.99 4.42,6.39l4.85 2.76c0.23,0.12 0.51,0.25 0.75,0.37l4.81 2.52c0.11,0.04 0.41,0.13 0.51,0.16l3.36 13.78c0.27,-7.21 0.92,-14.75 -0.21,-21.84l-0.41 -18.05c0.98,-3.5 -0.88,-0.47 1.62,-3.23 0.05,5.48 2.95,10.63 4.12,16.87 1.2,6.43 2.63,13.37 2.27,19.21 -0.7,11.54 0.52,27.82 -4.56,36.7z"/>
     <path class="fil4" d="M105.68 69.5c-3.85,4.77 1.86,4.39 -4.35,6.37l23.59 0.68 0.39 2.66c-0.17,37.35 -4.81,51.38 -35.11,56.3 -2.56,0.59 -1.87,0.84 -4.59,0.86 -3.83,0.03 -1.93,0.49 -3.58,-0.97l1.01 6.52c-0.47,-0.22 -0.84,-0.93 -0.92,-0.73l-1.66 1.85c-2.55,-1.12 -2.98,1.76 -2.66,-4.32 -0.57,5.51 -0.89,8.17 -5.37,11.05 5.97,-14.97 7.91,-30.1 5.08,-46.6 -1.32,-7.66 -3.79,-14.41 -6.9,-19.22 -0.33,-0.51 -2.31,-2.97 -3.07,-3.62 -1.58,-1.36 -2.43,-1.84 -4.29,-2.59 -5.03,-2.04 -6.88,-0.98 -11.94,-0.85 1.71,-1.62 1.12,-2.04 6.77,-2.36 -2.01,-0.29 -4.58,1.93 -0.76,-1.02 1.27,-0.98 0.08,-0.69 3.03,-0.86 -5.26,-1.36 -3.49,-0.04 -2.92,-1.98 3.86,-1.17 10.16,-1.29 15.88,-7.81 0.16,-0.18 0.38,-0.47 0.52,-0.65l1.02 -1.4c16.05,-0.08 15.93,-1.83 22.39,5.18 2.95,3.21 2.62,3.49 8.47,3.52z"/>
     <path class="fil5" d="M126.05 212.03c5.82,2.88 10.46,5.65 17.04,8.05 6.57,2.39 11.02,4.29 17.68,6.16 13.55,3.81 30.57,5.99 43.57,1.09 -0.4,0.34 -1.67,1.54 -2.79,2.44 -18.74,13.16 -41.57,20.89 -66.21,20.89 -24.12,0 -46.5,-7.41 -65.01,-20.07 0.05,-0.28 0.09,-0.57 0.14,-0.89 -2.61,-2.34 -1.61,0.11 -7.61,-5.53 -4.14,-3.89 -9.88,-7.34 -12.33,-13.57 -0.4,-3.37 -2.12,0.45 0.68,-1.9 0.82,3.67 4.93,6.64 8.29,9.01 2.43,1.71 4.23,1.5 6.27,2.49 0.12,0.06 0.4,0.21 0.52,0.27 0.13,0.07 0.42,0.22 0.56,0.3l2.7 1.4c6.4,3.47 1.68,2.47 9.75,5.62 7.53,2.94 10.48,3.1 20.6,2.96l23.84 -4.5c6.19,-5.07 0.42,-0.13 8.58,-4.88l-3.12 -6.16c-2.62,-2.55 -1.9,-3.5 -4.32,-0.81 3.25,0 0.06,0.5 1.16,-2.36z"/>
     <path class="fil3" d="M148.26 83.98c-3.4,2.97 -1.85,-1.27 -2.46,5.45 -0.26,2.79 5.33,17.34 -0.3,50.61 -1.12,6.65 0.11,9.88 -6.86,12.1 -6.47,1.07 -13.05,-2.85 -19.16,1.37 -3.96,2.73 -6.58,9.48 -9.17,14.81 -14.55,29.93 -4.94,23.94 -1.37,33.2 0.38,0.93 0.77,1.74 1.22,2.63l1.68 3.18c-0.27,0.18 -0.68,0.12 -0.82,0.54 -0.83,2.52 -8.81,4.44 -11.32,4.77l-24.95 1.18c-7.7,-0.69 -7.84,-4.01 -17.2,-9.15 -2.02,-1.11 -0.32,0.41 -2.67,-1.96 -1.53,-1.55 -0.91,-1.33 -1.89,-2.45 -3.4,-3.92 -1.63,-1.1 -4.88,-3.57 -1.42,-1.08 -3.28,-3.54 -4.16,-4.86 -7.64,-11.42 -6.59,-4.09 -11.46,-14.37 -1.05,-2.22 -1.68,-3.61 -2.59,-6.1 -1.37,-3.78 -1.15,-4.1 -3.36,-5.68 -6.41,-10.14 -2.6,-44.21 0.1,-57.99 -1.44,12.89 -4.04,19.45 -2.44,34.41 3.75,35.14 23.22,31.7 27.59,33.73l7.34 3.37c1.9,1.14 3.63,2.63 6.19,3.71 7.04,2.98 19.15,1.99 26.76,1.99 0.83,-3.29 2.37,-4.79 3.74,-7.4 3.42,-6.48 -0.31,-1.52 5.77,-10.42 1.84,-2.69 0.18,-0.31 2.37,-3.02 0.15,-0.18 0.36,-0.42 0.51,-0.6 14.98,-19.08 10.51,-10.75 32.24,-18.77 -0.24,-3.96 0.44,-7.2 -3.27,-5.43 9.26,-2.07 -0.77,2.27 5.89,-7.18 3.67,-5.21 -0.32,-2.08 4.11,-10.19 1.47,-2.7 2.54,-13.23 2.8,-17.27l-4.33 -28.33c-2.53,-9.76 -3.53,-13.38 -9.37,-21.88 -10.67,-15.52 -4.16,-8.74 -2.2,-10.63l1.97 4.82c5.57,6.97 6.03,3.86 10.85,19.33l3.9 11.85c1.07,5.34 -1.83,1.42 1.21,4.21z"/>
     <path class="fil6" d="M147.75 154.2c1.76,0.72 24.53,2.97 32.04,-1.25 1.51,-0.85 2.14,-1.25 3.49,-1.93l3.75 -1.84 0.27 -10.51c6.22,-1.4 2.89,-0.99 4.73,-4.17 4.59,-7.92 3.39,1.88 8.6,-6.62 0.8,-1.31 1.58,-3.48 2.05,-5.38 5.32,-0.04 8.57,0.7 10.78,-1.32 2.04,7.54 0.6,18.7 0.28,27.13 10.25,4.39 12.26,10.62 20,17.89 3.64,-2.33 1.58,-0.83 5.36,-7.21 0.04,8.5 3.69,3.34 2.25,10.56 0.05,-0.79 -0.2,-0.91 0.69,-1.32 0.03,-0.01 0.29,-0.04 0.32,-0.04l1.17 0.56 -0.07 2.23c-13.94,-0.02 -23.3,-0.14 -38.03,-2.86 -11.3,-0.98 -23.81,-4.42 -34.98,-6.79 -5.79,-1.23 -10.92,-2.41 -16.78,-3.78 -10.05,-2.34 -2.42,-3.23 -10.58,-4.27 -3.85,-0.49 -1.89,0.73 -4.47,-1.14 6.98,-2.22 5.74,-5.45 6.86,-12.1 5.63,-33.27 0.04,-47.82 0.3,-50.61 0.62,-6.72 -0.94,-2.48 2.46,-5.45 0.08,6.56 1.56,10.29 2.46,17.31 2.7,21.08 -2.97,31.32 -2.97,52.91z"/>
     <path class="fil4" d="M54.14 153.33c-0.22,-0.55 -0.3,-1.42 -0.31,-1.42l-1.81 -3.11c-0.06,-0.12 -0.21,-0.41 -0.26,-0.53 -0.04,-0.08 -0.39,-1.74 -0.67,-2.49 -8.06,-1.03 -4.19,-0.03 -13.51,0.35 11.28,-1.45 16.06,-4.93 18.4,-21.91 0.95,-6.95 -0.26,-12.6 -2.23,-17.65 -3.13,-8.02 -7.72,-7.33 -15.94,-4.92 3.13,3.55 1.99,2.97 9.8,2.97 2.06,3.23 3.25,5.28 3.41,10.84 0.11,3.78 -0.19,11.08 -1.42,14.47 -0.26,0.73 -5.51,7.79 -6.28,8.51 -3.54,3.29 -4.13,2.65 -8.78,0.57 -1.92,2.19 -0.57,-0.88 -1.46,2.18 -0.99,3.41 0.01,0.62 0.37,0.65 -2.44,-5.3 -3.36,-10.84 -3.1,-18.79l5.92 -26.4c1.07,-2.77 19.76,-27.03 32.27,3.46 4.36,10.62 1.33,29.96 -3.6,40.55 -2.36,5.08 -5.2,11.13 -10.81,12.67z"/>
     <path class="fil6" d="M108.93 201.52c3.74,1.27 11.87,7.35 17.12,10.51 -1.09,2.86 2.1,2.36 -1.16,2.36 2.41,-2.69 1.7,-1.74 4.32,0.81l3.12 6.16c-8.16,4.75 -2.39,-0.19 -8.58,4.88l-23.84 4.5c-10.12,0.14 -13.07,-0.02 -20.6,-2.96 -8.07,-3.15 -3.35,-2.15 -9.75,-5.62l-2.7 -1.4c-0.14,-0.07 -0.43,-0.23 -0.56,-0.3 -0.12,-0.06 -0.4,-0.21 -0.52,-0.27 -2.05,-0.99 -3.85,-0.78 -6.27,-2.49 -3.36,-2.37 -7.48,-5.33 -8.29,-9.01 -2.8,2.35 -1.08,-1.47 -0.68,1.9 -2.64,-2.06 -2.28,-1.35 -4.49,-4.39 -10.06,-13.8 -14.27,-23.09 -19.5,-40.54 2.2,1.57 1.99,1.9 3.36,5.68 0.9,2.5 1.53,3.88 2.59,6.1 4.87,10.28 3.82,2.95 11.46,14.37 0.88,1.31 2.74,3.78 4.16,4.86 3.26,2.47 1.48,-0.35 4.88,3.57 0.98,1.12 0.36,0.9 1.89,2.45 2.34,2.37 0.65,0.85 2.67,1.96 9.37,5.15 9.5,8.46 17.2,9.15l24.95 -1.18c2.51,-0.32 10.5,-2.25 11.32,-4.77 0.14,-0.42 0.54,-0.36 0.82,-0.54l-1.68 -3.18c-0.45,-0.89 -0.84,-1.71 -1.22,-2.63z"/>
     <path class="fil7" d="M156.47 173.42c4.55,0.91 10.73,0.71 13.47,2.53 6.81,4.5 2.99,17.1 -2.06,21.64 -0.06,0.05 -1.69,1.33 -1.85,1.47 -3.23,2.68 -3.87,4.05 -8.53,4.32 -10.58,0.6 -22.16,-13.86 -10.29,-26.53 2.27,-2.42 1.01,-2.1 4.45,-2.09 3.66,0.02 -0.82,1.02 2.33,0.2l1.17 -0.56c0.21,-0.11 1.03,-0.77 1.31,-0.99z"/>
     <path class="fil8" d="M243.47 170.98c0.47,0.58 0.82,1.06 1.08,1.49 -6.15,18.11 -16.69,34.19 -30.33,46.99l-1.62 -1.8c2.16,-9.01 13.39,-21.13 17.08,-29.03 3.16,-6.75 0.98,-8.5 2.25,-12.5 -7.55,-0.2 -25.29,-3.23 -32.78,-5.37l6.29 -2.63c14.72,2.72 24.09,2.84 38.03,2.86z"/>
     <path class="fil9" d="M151.73 193.46c1.38,-7.58 3.54,-12.6 12.56,-13.43 1.5,10.51 -0.45,14.99 -12.56,13.43z"/>
     <path class="fil10" d="M207.71 199.24l-8.79 0.28c0.37,-18.04 21.17,-16.04 8.79,-0.28z"/>
     <path class="fil11" d="M151.73 193.46c12.11,1.56 14.06,-2.92 12.56,-13.43l4.56 0.97c1.75,12.91 -3.7,18.68 -16.55,17.04l-0.57 -4.58z"/>
    </g>
    <g>
     <path class="fil2" d="M201.55 229.77c1.12,-0.9 2.39,-2.1 2.79,-2.44 0.4,-0.15 0.8,-0.31 1.19,-0.48 -1.31,1 -2.63,1.98 -3.98,2.93zm43.01 -57.3c-0.26,-0.43 -0.62,-0.91 -1.08,-1.49l0.07 -2.23c5.09,-8.88 3.87,-25.17 4.56,-36.7 0.35,-5.84 -1.07,-12.78 -2.27,-19.21 -1.17,-6.24 -4.07,-11.39 -4.12,-16.87 -2.5,2.76 -0.64,-0.27 -1.62,3.23l0.41 18.05c1.13,7.09 0.48,14.63 0.21,21.84l-3.36 -13.78c-0.1,-0.03 -0.4,-0.12 -0.51,-0.16l-4.81 -2.52c-0.23,-0.12 -0.51,-0.25 -0.75,-0.37l-4.85 -2.76c-5.49,-3.41 -4.33,-1.8 -4.42,-6.39 -3.57,0.85 -5.26,1.33 -7.85,0.09 -6.74,-20.09 -6.65,-15.47 -13.74,-29.62 -0.26,0.18 -0.61,0.38 -0.79,0.52 -0.18,0.13 -0.56,0.35 -0.77,0.52 -0.21,0.16 -0.51,0.35 -0.73,0.54 -0.26,0.23 -1,0.93 -1.22,1.21 -2.37,3.03 -0.66,0.71 -1.7,4.06 -1.88,6.04 0.09,1.59 -4.46,6.03 -0.17,0.17 -0.4,0.39 -0.56,0.57l-7.36 8.98c-0.15,0.19 -0.35,0.44 -0.49,0.64 -1.56,2.19 -1.98,4.46 -2.98,6.91 -5.21,12.78 -9.87,7.76 -10.37,18.75 -5.35,0.64 -3.43,2.02 -9.71,2.31 -0.17,6.13 -0.6,7.46 -2.4,9.57 -4.77,5.6 -2.57,4.91 -4.91,5.7 -1.06,5.69 0.19,0.18 -1.68,1.4 -1.41,0.93 -1.18,1.29 -2.53,2.92 0,-21.59 5.67,-31.83 2.97,-52.91 -0.9,-7.02 -2.38,-10.75 -2.46,-17.31 -3.04,-2.8 -0.14,1.12 -1.21,-4.21l-3.9 -11.85c-4.82,-15.47 -5.28,-12.35 -10.85,-19.33l-1.97 -4.82c-1.96,1.89 -8.46,-4.89 2.2,10.63 5.84,8.5 6.84,12.12 9.37,21.88l4.33 28.33c-0.25,4.04 -1.32,14.57 -2.8,17.27 -4.43,8.11 -0.44,4.97 -4.11,10.19 -6.65,9.45 3.37,5.11 -5.89,7.18 3.7,-1.77 3.02,1.48 3.27,5.43 -21.73,8.02 -17.25,-0.31 -32.24,18.77 -0.14,0.18 -0.36,0.42 -0.51,0.6 -2.19,2.71 -0.53,0.32 -2.37,3.02 -6.08,8.91 -2.35,3.94 -5.77,10.42 -1.38,2.61 -2.91,4.11 -3.74,7.4 -7.61,0 -19.72,0.99 -26.76,-1.99 -2.56,-1.08 -4.29,-2.57 -6.19,-3.71l-7.34 -3.37c-4.37,-2.03 -23.84,1.41 -27.59,-33.73 -1.6,-14.96 1,-21.52 2.44,-34.41 -2.7,13.78 -6.51,47.84 -0.1,57.99 5.24,17.45 9.45,26.74 19.5,40.54 2.21,3.04 1.85,2.33 4.49,4.39 2.44,6.22 8.19,9.68 12.33,13.57 6,5.64 5,3.19 7.61,5.53 -0.05,0.32 -0.09,0.62 -0.14,0.89 -30.37,-20.77 -50.31,-55.68 -50.31,-95.25 0,-63.69 51.63,-115.32 115.32,-115.32 63.69,0 115.32,51.63 115.32,115.32 0,12.99 -2.15,25.48 -6.11,37.13z"/>
     <path class="fil1" d="M138.64 152.15c2.58,1.87 0.61,0.65 4.47,1.14 8.16,1.04 0.53,1.93 10.58,4.27 5.86,1.37 10.99,2.56 16.78,3.78 11.18,2.36 23.69,5.81 34.98,6.79l-6.29 2.63c7.49,2.14 25.24,5.17 32.78,5.37 -1.27,4.01 0.9,5.75 -2.25,12.5 -3.69,7.9 -14.92,20.02 -17.08,29.03l1.62 1.8c-2.77,2.6 -5.67,5.06 -8.69,7.38 -0.39,0.17 -0.79,0.33 -1.19,0.48 -13,4.91 -30.02,2.73 -43.57,-1.09 -6.66,-1.87 -11.11,-3.77 -17.68,-6.16 -6.59,-2.4 -11.23,-5.17 -17.04,-8.05 -5.25,-3.16 -13.38,-9.24 -17.12,-10.51 -3.57,-9.26 -13.18,-3.26 1.37,-33.2 2.59,-5.32 5.21,-12.08 9.17,-14.81 6.11,-4.22 12.69,-0.3 19.16,-1.37z"/>
     <path class="fil3" d="M243.54 168.76l-1.17 -0.56c-0.03,0 -0.29,0.03 -0.32,0.04 -0.89,0.4 -0.63,0.53 -0.69,1.32 1.43,-7.21 -2.22,-2.05 -2.25,-10.56 -3.78,6.38 -1.72,4.88 -5.36,7.21 -7.74,-7.27 -9.75,-13.5 -20,-17.89 0.32,-8.43 1.76,-19.59 -0.28,-27.13 -2.21,2.03 -5.46,1.28 -10.78,1.32 -0.48,1.9 -1.25,4.08 -2.05,5.38 -5.21,8.5 -4,-1.3 -8.6,6.62 -1.84,3.18 1.49,2.76 -4.73,4.17l-0.27 10.51 -3.75 1.84c-1.34,0.68 -1.98,1.08 -3.49,1.93 -7.51,4.22 -30.28,1.97 -32.04,1.25 1.35,-1.63 1.12,-1.99 2.53,-2.92 1.87,-1.23 0.62,4.29 1.68,-1.4 2.34,-0.8 0.14,-0.1 4.91,-5.7 1.8,-2.12 2.24,-3.45 2.4,-9.57 6.27,-0.29 4.36,-1.67 9.71,-2.31 0.5,-10.98 5.16,-5.97 10.37,-18.75 1,-2.45 1.42,-4.72 2.98,-6.91 0.14,-0.2 0.34,-0.45 0.49,-0.64l7.36 -8.98c0.16,-0.18 0.39,-0.4 0.56,-0.57 4.54,-4.44 2.57,0.01 4.46,-6.03 1.04,-3.35 -0.67,-1.03 1.7,-4.06 0.22,-0.28 0.96,-0.98 1.22,-1.21 0.21,-0.19 0.52,-0.38 0.73,-0.54 0.21,-0.17 0.6,-0.39 0.77,-0.52 0.18,-0.13 0.53,-0.34 0.79,-0.52 7.09,14.15 6.99,9.53 13.74,29.62 2.59,1.24 4.27,0.76 7.85,-0.09 0.1,4.6 -1.06,2.99 4.42,6.39l4.85 2.76c0.23,0.12 0.51,0.25 0.75,0.37l4.81 2.52c0.11,0.04 0.41,0.13 0.51,0.16l3.36 13.78c0.27,-7.21 0.92,-14.75 -0.21,-21.84l-0.41 -18.05c0.98,-3.5 -0.88,-0.47 1.62,-3.23 0.05,5.48 2.95,10.63 4.12,16.87 1.2,6.43 2.63,13.37 2.27,19.21 -0.7,11.54 0.52,27.82 -4.56,36.7z"/>
     <path class="fil4" d="M105.68 69.5c-3.85,4.77 1.86,4.39 -4.35,6.37l23.59 0.68 0.39 2.66c-0.17,37.35 -4.81,51.38 -35.11,56.3 -2.56,0.59 -1.87,0.84 -4.59,0.86 -3.83,0.03 -1.93,0.49 -3.58,-0.97l1.01 6.52c-0.47,-0.22 -0.84,-0.93 -0.92,-0.73l-1.66 1.85c-2.55,-1.12 -2.98,1.76 -2.66,-4.32 -0.57,5.51 -0.89,8.17 -5.37,11.05 5.97,-14.97 7.91,-30.1 5.08,-46.6 -1.32,-7.66 -3.79,-14.41 -6.9,-19.22 -0.33,-0.51 -2.31,-2.97 -3.07,-3.62 -1.58,-1.36 -2.43,-1.84 -4.29,-2.59 -5.03,-2.04 -6.88,-0.98 -11.94,-0.85 1.71,-1.62 1.12,-2.04 6.77,-2.36 -2.01,-0.29 -4.58,1.93 -0.76,-1.02 1.27,-0.98 0.08,-0.69 3.03,-0.86 -5.26,-1.36 -3.49,-0.04 -2.92,-1.98 3.86,-1.17 10.16,-1.29 15.88,-7.81 0.16,-0.18 0.38,-0.47 0.52,-0.65l1.02 -1.4c16.05,-0.08 15.93,-1.83 22.39,5.18 2.95,3.21 2.62,3.49 8.47,3.52z"/>
     <path class="fil5" d="M126.05 212.03c5.82,2.88 10.46,5.65 17.04,8.05 6.57,2.39 11.02,4.29 17.68,6.16 13.55,3.81 30.57,5.99 43.57,1.09 -0.4,0.34 -1.67,1.54 -2.79,2.44 -18.74,13.16 -41.57,20.89 -66.21,20.89 -24.12,0 -46.5,-7.41 -65.01,-20.07 0.05,-0.28 0.09,-0.57 0.14,-0.89 -2.61,-2.34 -1.61,0.11 -7.61,-5.53 -4.14,-3.89 -9.88,-7.34 -12.33,-13.57 -0.4,-3.37 -2.12,0.45 0.68,-1.9 0.82,3.67 4.93,6.64 8.29,9.01 2.43,1.71 4.23,1.5 6.27,2.49 0.12,0.06 0.4,0.21 0.52,0.27 0.13,0.07 0.42,0.22 0.56,0.3l2.7 1.4c6.4,3.47 1.68,2.47 9.75,5.62 7.53,2.94 10.48,3.1 20.6,2.96l23.84 -4.5c6.19,-5.07 0.42,-0.13 8.58,-4.88l-3.12 -6.16c-2.62,-2.55 -1.9,-3.5 -4.32,-0.81 3.25,0 0.06,0.5 1.16,-2.36z"/>
     <path class="fil3" d="M148.26 83.98c-3.4,2.97 -1.85,-1.27 -2.46,5.45 -0.26,2.79 5.33,17.34 -0.3,50.61 -1.12,6.65 0.11,9.88 -6.86,12.1 -6.47,1.07 -13.05,-2.85 -19.16,1.37 -3.96,2.73 -6.58,9.48 -9.17,14.81 -14.55,29.93 -4.94,23.94 -1.37,33.2 0.38,0.93 0.77,1.74 1.22,2.63l1.68 3.18c-0.27,0.18 -0.68,0.12 -0.82,0.54 -0.83,2.52 -8.81,4.44 -11.32,4.77l-24.95 1.18c-7.7,-0.69 -7.84,-4.01 -17.2,-9.15 -2.02,-1.11 -0.32,0.41 -2.67,-1.96 -1.53,-1.55 -0.91,-1.33 -1.89,-2.45 -3.4,-3.92 -1.63,-1.1 -4.88,-3.57 -1.42,-1.08 -3.28,-3.54 -4.16,-4.86 -7.64,-11.42 -6.59,-4.09 -11.46,-14.37 -1.05,-2.22 -1.68,-3.61 -2.59,-6.1 -1.37,-3.78 -1.15,-4.1 -3.36,-5.68 -6.41,-10.14 -2.6,-44.21 0.1,-57.99 -1.44,12.89 -4.04,19.45 -2.44,34.41 3.75,35.14 23.22,31.7 27.59,33.73l7.34 3.37c1.9,1.14 3.63,2.63 6.19,3.71 7.04,2.98 19.15,1.99 26.76,1.99 0.83,-3.29 2.37,-4.79 3.74,-7.4 3.42,-6.48 -0.31,-1.52 5.77,-10.42 1.84,-2.69 0.18,-0.31 2.37,-3.02 0.15,-0.18 0.36,-0.42 0.51,-0.6 14.98,-19.08 10.51,-10.75 32.24,-18.77 -0.24,-3.96 0.44,-7.2 -3.27,-5.43 9.26,-2.07 -0.77,2.27 5.89,-7.18 3.67,-5.21 -0.32,-2.08 4.11,-10.19 1.47,-2.7 2.54,-13.23 2.8,-17.27l-4.33 -28.33c-2.53,-9.76 -3.53,-13.38 -9.37,-21.88 -10.67,-15.52 -4.16,-8.74 -2.2,-10.63l1.97 4.82c5.57,6.97 6.03,3.86 10.85,19.33l3.9 11.85c1.07,5.34 -1.83,1.42 1.21,4.21z"/>
     <path class="fil6" d="M147.75 154.2c1.76,0.72 24.53,2.97 32.04,-1.25 1.51,-0.85 2.14,-1.25 3.49,-1.93l3.75 -1.84 0.27 -10.51c6.22,-1.4 2.89,-0.99 4.73,-4.17 4.59,-7.92 3.39,1.88 8.6,-6.62 0.8,-1.31 1.58,-3.48 2.05,-5.38 5.32,-0.04 8.57,0.7 10.78,-1.32 2.04,7.54 0.6,18.7 0.28,27.13 10.25,4.39 12.26,10.62 20,17.89 3.64,-2.33 1.58,-0.83 5.36,-7.21 0.04,8.5 3.69,3.34 2.25,10.56 0.05,-0.79 -0.2,-0.91 0.69,-1.32 0.03,-0.01 0.29,-0.04 0.32,-0.04l1.17 0.56 -0.07 2.23c-13.94,-0.02 -23.3,-0.14 -38.03,-2.86 -11.3,-0.98 -23.81,-4.42 -34.98,-6.79 -5.79,-1.23 -10.92,-2.41 -16.78,-3.78 -10.05,-2.34 -2.42,-3.23 -10.58,-4.27 -3.85,-0.49 -1.89,0.73 -4.47,-1.14 6.98,-2.22 5.74,-5.45 6.86,-12.1 5.63,-33.27 0.04,-47.82 0.3,-50.61 0.62,-6.72 -0.94,-2.48 2.46,-5.45 0.08,6.56 1.56,10.29 2.46,17.31 2.7,21.08 -2.97,31.32 -2.97,52.91z"/>
     <path class="fil4" d="M54.14 153.33c-0.22,-0.55 -0.3,-1.42 -0.31,-1.42l-1.81 -3.11c-0.06,-0.12 -0.21,-0.41 -0.26,-0.53 -0.04,-0.08 -0.39,-1.74 -0.67,-2.49 -8.06,-1.03 -4.19,-0.03 -13.51,0.35 11.28,-1.45 16.06,-4.93 18.4,-21.91 0.95,-6.95 -0.26,-12.6 -2.23,-17.65 -3.13,-8.02 -7.72,-7.33 -15.94,-4.92 3.13,3.55 1.99,2.97 9.8,2.97 2.06,3.23 3.25,5.28 3.41,10.84 0.11,3.78 -0.19,11.08 -1.42,14.47 -0.26,0.73 -5.51,7.79 -6.28,8.51 -3.54,3.29 -4.13,2.65 -8.78,0.57 -1.92,2.19 -0.57,-0.88 -1.46,2.18 -0.99,3.41 0.01,0.62 0.37,0.65 -2.44,-5.3 -3.36,-10.84 -3.1,-18.79l5.92 -26.4c1.07,-2.77 19.76,-27.03 32.27,3.46 4.36,10.62 1.33,29.96 -3.6,40.55 -2.36,5.08 -5.2,11.13 -10.81,12.67z"/>
     <path class="fil6" d="M108.93 201.52c3.74,1.27 11.87,7.35 17.12,10.51 -1.09,2.86 2.1,2.36 -1.16,2.36 2.41,-2.69 1.7,-1.74 4.32,0.81l3.12 6.16c-8.16,4.75 -2.39,-0.19 -8.58,4.88l-23.84 4.5c-10.12,0.14 -13.07,-0.02 -20.6,-2.96 -8.07,-3.15 -3.35,-2.15 -9.75,-5.62l-2.7 -1.4c-0.14,-0.07 -0.43,-0.23 -0.56,-0.3 -0.12,-0.06 -0.4,-0.21 -0.52,-0.27 -2.05,-0.99 -3.85,-0.78 -6.27,-2.49 -3.36,-2.37 -7.48,-5.33 -8.29,-9.01 -2.8,2.35 -1.08,-1.47 -0.68,1.9 -2.64,-2.06 -2.28,-1.35 -4.49,-4.39 -10.06,-13.8 -14.27,-23.09 -19.5,-40.54 2.2,1.57 1.99,1.9 3.36,5.68 0.9,2.5 1.53,3.88 2.59,6.1 4.87,10.28 3.82,2.95 11.46,14.37 0.88,1.31 2.74,3.78 4.16,4.86 3.26,2.47 1.48,-0.35 4.88,3.57 0.98,1.12 0.36,0.9 1.89,2.45 2.34,2.37 0.65,0.85 2.67,1.96 9.37,5.15 9.5,8.46 17.2,9.15l24.95 -1.18c2.51,-0.32 10.5,-2.25 11.32,-4.77 0.14,-0.42 0.54,-0.36 0.82,-0.54l-1.68 -3.18c-0.45,-0.89 -0.84,-1.71 -1.22,-2.63z"/>
     <path class="fil8" d="M243.47 170.98c0.47,0.58 0.82,1.06 1.08,1.49 -6.15,18.11 -16.69,34.19 -30.33,46.99l-1.62 -1.8c2.16,-9.01 13.39,-21.13 17.08,-29.03 3.16,-6.75 0.98,-8.5 2.25,-12.5 -7.55,-0.2 -25.29,-3.23 -32.78,-5.37l6.29 -2.63c14.72,2.72 24.09,2.84 38.03,2.86z"/>
     <path class="fil9" d="M151.73 193.46c1.38,-7.58 3.54,-12.6 12.56,-13.43 1.5,10.51 -0.45,14.99 -12.56,13.43z"/>
    </g>
    <rect class="fil7" transform="matrix(1.50178 0.708372 -0.708372 1.50178 137.61 166.736)" width="31.2" height="11.37"/>
    <rect class="fil11" transform="matrix(1.02293 0.500579 -0.427711 1.16294 142.505 174.021)" width="31.2" height="11.37"/>
    <rect class="fil9" transform="matrix(1.0203 0.433297 -0.433297 1.0203 144.037 173.811)" width="31.2" height="11.37"/>
    <rect class="fil7" transform="matrix(-0.643817 0.121215 0.113343 0.688529 215.265 192.621)" width="31.2" height="11.37"/>
    <rect class="fil9" transform="matrix(-0.643817 0.113343 0.113343 0.643817 214.916 191.226)" width="31.2" height="11.37"/>
   </g>
  </g>
 </g>
</svg>
