<?xml version="1.0" encoding="UTF-8"?>
<!DOCTYPE svg PUBLIC "-//W3C//DTD SVG 1.1//EN" "http://www.w3.org/Graphics/SVG/1.1/DTD/svg11.dtd">
<!-- Creator: CorelDRAW 2021 (64-Bit) -->
<svg xmlns="http://www.w3.org/2000/svg" xml:space="preserve" width="2.37311in" height="2.37311in" version="1.1" style="shape-rendering:geometricPrecision; text-rendering:geometricPrecision; image-rendering:optimizeQuality; fill-rule:evenodd; clip-rule:evenodd"
viewBox="0 0 478.26 478.26"
 xmlns:xlink="http://www.w3.org/1999/xlink"
 xmlns:xodm="http://www.corel.com/coreldraw/odm/2003">
 <defs>
  <style type="text/css">
   <![CDATA[
    .fil9 {fill:#0753F5}
    .fil11 {fill:#10006F}
    .fil2 {fill:#130028}
    .fil10 {fill:#1C55EC}
    .fil7 {fill:#25003B}
    .fil8 {fill:#380045}
    .fil0 {fill:#7E23E1}
    .fil5 {fill:#939293}
    .fil6 {fill:#A6A8A9}
    .fil3 {fill:#BFBEBF}
    .fil1 {fill:#D6D6D7}
    .fil4 {fill:#FBFBFB}
   ]]>
  </style>
 </defs>
 <g id="Layer_x0020_1">
  <metadata id="CorelCorpID_0Corel-Layer"/>
  <circle class="fil0" cx="239.13" cy="239.13" r="239.13"/>
  <g id="_1481762700384">
   <path class="fil1" d="M122.16 405.97c-1.98,-1.59 -4.22,-3.71 -4.93,-4.32 -0.71,-0.27 -1.41,-0.55 -2.1,-0.85 2.31,1.77 4.65,3.5 7.03,5.17zm-75.98 -101.24c0.46,-0.76 1.09,-1.61 1.92,-2.63l-0.12 -3.93c-8.99,-15.69 -6.83,-44.47 -8.06,-64.85 -0.63,-10.33 1.89,-22.58 4.02,-33.95 2.06,-11.03 7.19,-20.13 7.28,-29.81 4.41,4.89 1.13,-0.48 2.86,5.72l-0.72 31.89c-1.99,12.53 -0.85,25.85 -0.37,38.58l5.94 -24.35c0.17,-0.05 0.71,-0.21 0.9,-0.28l8.49 -4.46c0.41,-0.22 0.91,-0.45 1.32,-0.66l8.57 -4.88c9.7,-6.02 7.65,-3.17 7.82,-11.3 6.31,1.51 9.29,2.35 13.87,0.16 11.92,-35.49 11.75,-27.33 24.27,-52.33 0.46,0.32 1.08,0.68 1.4,0.92 0.32,0.23 0.99,0.62 1.37,0.92 0.36,0.29 0.91,0.62 1.28,0.95 0.45,0.4 1.77,1.64 2.15,2.13 4.19,5.35 1.17,1.25 3.01,7.18 3.33,10.67 -0.15,2.8 7.87,10.66 0.3,0.3 0.71,0.7 0.99,1.01l13.01 15.87c0.27,0.33 0.62,0.77 0.87,1.13 2.76,3.87 3.5,7.88 5.26,12.21 9.21,22.57 17.44,13.72 18.33,33.12 9.45,1.13 6.06,3.57 17.15,4.08 0.3,10.83 1.06,13.17 4.24,16.92 8.43,9.9 4.55,8.67 8.68,10.08 1.87,10.05 -0.34,0.31 2.97,2.48 2.5,1.64 2.08,2.28 4.47,5.16 0,-38.14 -10.02,-56.23 -5.25,-93.48 1.59,-12.4 4.2,-18.99 4.34,-30.59 5.37,-4.94 0.24,1.99 2.14,-7.45l6.89 -20.94c8.51,-27.33 9.32,-21.83 19.17,-34.15l3.47 -8.52c3.46,3.34 14.95,-8.64 -3.89,18.79 -10.33,15.02 -12.09,21.42 -16.56,38.67l-7.65 50.05c0.45,7.14 2.34,25.75 4.94,30.51 7.83,14.33 0.77,8.79 7.26,18 11.76,16.7 -5.95,9.02 10.41,12.69 -6.54,-3.12 -5.34,2.61 -5.77,9.6 38.39,14.17 30.48,-0.55 56.96,33.17 0.26,0.33 0.64,0.75 0.9,1.06 3.87,4.79 0.94,0.57 4.19,5.33 10.74,15.74 4.15,6.97 10.19,18.42 2.43,4.61 5.14,7.26 6.62,13.08 13.45,0 34.84,1.74 47.28,-3.52 4.52,-1.91 7.57,-4.54 10.94,-6.56l12.97 -5.95c7.72,-3.59 42.13,2.5 48.75,-59.59 2.82,-26.43 -1.76,-38.02 -4.31,-60.8 4.78,24.35 11.5,84.53 0.18,102.45 -9.25,30.84 -16.69,47.25 -34.46,71.63 -3.91,5.37 -3.26,4.12 -7.93,7.76 -4.31,11 -14.47,17.09 -21.78,23.97 -10.6,9.97 -8.83,5.64 -13.44,9.77 0.08,0.56 0.17,1.09 0.25,1.58 53.66,-36.7 88.88,-98.38 88.88,-168.3 0,-112.53 -91.22,-203.75 -203.75,-203.75 -112.53,0 -203.75,91.22 -203.75,203.75 0,22.95 3.8,45.02 10.8,65.6z"/>
   <path class="fil2" d="M233.31 268.82c-4.55,3.31 -1.08,1.14 -7.89,2.01 -14.41,1.83 -0.94,3.41 -18.69,7.55 -10.36,2.41 -19.41,4.51 -29.65,6.68 -19.75,4.18 -41.85,10.26 -61.81,11.99l11.12 4.65c-13.24,3.78 -44.59,9.14 -57.92,9.5 2.25,7.08 -1.6,10.16 3.98,22.09 6.52,13.96 26.36,35.37 30.18,51.29l-2.86 3.18c4.9,4.59 10.02,8.95 15.36,13.04 0.69,0.3 1.39,0.59 2.1,0.85 22.98,8.67 53.04,4.82 76.98,-1.92 11.77,-3.31 19.63,-6.66 31.23,-10.88 11.64,-4.23 19.84,-9.13 30.11,-14.22 9.27,-5.58 23.63,-16.32 30.25,-18.57 6.3,-16.36 23.29,-5.77 -2.42,-58.65 -4.57,-9.41 -9.21,-21.34 -16.2,-26.16 -10.8,-7.45 -22.43,-0.53 -33.86,-2.42z"/>
   <path class="fil3" d="M47.97 298.16l2.07 -0.99c0.06,0.01 0.51,0.05 0.56,0.08 1.57,0.71 1.12,0.94 1.21,2.33 -2.54,-12.74 3.91,-3.63 3.98,-18.65 6.68,11.27 3.03,8.63 9.47,12.74 13.68,-12.85 17.23,-23.85 35.34,-31.61 -0.57,-14.89 -3.12,-34.61 0.5,-47.93 3.91,3.58 9.65,2.26 19.05,2.33 0.84,3.36 2.21,7.2 3.63,9.51 9.21,15.01 7.07,-2.3 15.19,11.69 3.26,5.61 -2.63,4.88 8.36,7.36l0.49 18.57 6.63 3.24c2.38,1.2 3.49,1.91 6.16,3.41 13.27,7.46 53.51,3.47 56.61,2.2 -2.39,-2.88 -1.97,-3.52 -4.47,-5.16 -3.3,-2.17 -1.1,7.57 -2.97,-2.48 -4.13,-1.41 -0.25,-0.18 -8.68,-10.08 -3.19,-3.74 -3.95,-6.09 -4.24,-16.92 -11.08,-0.51 -7.7,-2.95 -17.15,-4.08 -0.89,-19.41 -9.11,-10.55 -18.33,-33.12 -1.77,-4.33 -2.5,-8.34 -5.26,-12.21 -0.25,-0.35 -0.6,-0.8 -0.87,-1.13l-13.01 -15.87c-0.29,-0.31 -0.69,-0.71 -0.99,-1.01 -8.03,-7.85 -4.55,0.02 -7.87,-10.66 -1.85,-5.93 1.18,-1.82 -3.01,-7.18 -0.38,-0.49 -1.69,-1.73 -2.15,-2.13 -0.38,-0.34 -0.92,-0.66 -1.28,-0.95 -0.38,-0.3 -1.05,-0.69 -1.37,-0.92 -0.32,-0.24 -0.94,-0.6 -1.4,-0.92 -12.53,25 -12.36,16.85 -24.27,52.33 -4.58,2.19 -7.55,1.35 -13.87,-0.16 -0.17,8.12 1.88,5.28 -7.82,11.3l-8.57 4.88c-0.41,0.21 -0.91,0.45 -1.32,0.66l-8.49 4.46c-0.19,0.07 -0.73,0.23 -0.9,0.28l-5.94 24.35c-0.48,-12.73 -1.62,-26.05 0.37,-38.58l0.72 -31.89c-1.73,-6.19 1.56,-0.83 -2.86,-5.72 -0.09,9.69 -5.22,18.78 -7.28,29.81 -2.13,11.37 -4.64,23.62 -4.02,33.95 1.24,20.38 -0.92,49.16 8.06,64.85z"/>
   <path class="fil4" d="M291.54 122.8c6.8,8.44 -3.29,7.76 7.69,11.26l-41.69 1.2 -0.68 4.7c0.3,66 8.5,90.77 62.03,99.47 4.52,1.04 3.3,1.48 8.12,1.52 6.77,0.06 3.41,0.87 6.32,-1.72l-1.79 11.51c0.83,-0.39 1.48,-1.65 1.63,-1.28l2.94 3.26c4.5,-1.99 5.26,3.11 4.7,-7.63 1.01,9.74 1.57,14.44 9.49,19.52 -10.55,-26.45 -13.98,-53.18 -8.97,-82.33 2.33,-13.53 6.7,-25.46 12.19,-33.95 0.58,-0.9 4.09,-5.25 5.42,-6.39 2.79,-2.41 4.3,-3.25 7.59,-4.58 8.89,-3.6 12.15,-1.74 21.1,-1.51 -3.03,-2.87 -1.99,-3.6 -11.96,-4.18 3.56,-0.52 8.1,3.4 1.34,-1.8 -2.25,-1.73 -0.14,-1.21 -5.35,-1.52 9.29,-2.41 6.16,-0.07 5.16,-3.5 -6.82,-2.07 -17.95,-2.27 -28.05,-13.8 -0.28,-0.32 -0.67,-0.84 -0.92,-1.14l-1.8 -2.47c-28.35,-0.15 -28.14,-3.24 -39.55,9.15 -5.22,5.67 -4.63,6.17 -14.96,6.21z"/>
   <path class="fil5" d="M255.55 374.62c-10.27,5.09 -18.47,9.99 -30.11,14.22 -11.6,4.22 -19.47,7.57 -31.23,10.88 -23.94,6.74 -54.01,10.59 -76.98,1.92 0.71,0.6 2.95,2.73 4.93,4.32 33.11,23.25 73.44,36.91 116.97,36.91 42.61,0 82.16,-13.09 114.87,-35.46 -0.08,-0.49 -0.16,-1.01 -0.25,-1.58 4.61,-4.13 2.84,0.2 13.44,-9.77 7.31,-6.87 17.47,-12.97 21.78,-23.97 0.71,-5.96 3.74,0.8 -1.2,-3.36 -1.44,6.49 -8.71,11.72 -14.65,15.91 -4.29,3.03 -7.47,2.65 -11.08,4.4 -0.2,0.1 -0.7,0.36 -0.92,0.47 -0.24,0.12 -0.75,0.4 -1,0.53l-4.78 2.48c-11.31,6.13 -2.97,4.36 -17.22,9.93 -13.3,5.2 -18.52,5.47 -36.39,5.23l-42.13 -7.95c-10.94,-8.96 -0.74,-0.24 -15.16,-8.63l5.52 -10.88c4.63,-4.5 3.36,-6.19 7.63,-1.43 -5.75,0 -0.11,0.88 -2.04,-4.18z"/>
   <path class="fil3" d="M216.3 148.38c6.01,5.25 3.26,-2.24 4.35,9.63 0.45,4.93 -9.41,30.64 0.53,89.43 1.99,11.75 -0.2,17.45 12.13,21.38 11.43,1.89 23.06,-5.03 33.86,2.42 7,4.82 11.63,16.76 16.2,26.16 25.71,52.89 8.72,42.29 2.42,58.65 -0.67,1.64 -1.36,3.08 -2.16,4.65l-2.97 5.61c0.48,0.31 1.2,0.21 1.44,0.95 1.46,4.45 15.56,7.85 20,8.42l44.09 2.09c13.6,-1.22 13.84,-7.08 30.39,-16.17 3.57,-1.96 0.57,0.73 4.71,-3.46 2.71,-2.74 1.62,-2.35 3.34,-4.33 6.01,-6.92 2.87,-1.95 8.62,-6.3 2.51,-1.9 5.79,-6.26 7.35,-8.58 13.5,-20.18 11.64,-7.23 20.25,-25.39 1.86,-3.92 2.97,-6.37 4.57,-10.78 2.42,-6.68 2.04,-7.25 5.93,-10.03 11.32,-17.92 4.59,-78.1 -0.18,-102.45 2.55,22.77 7.13,34.36 4.31,60.8 -6.62,62.09 -41.02,56.01 -48.75,59.59l-12.97 5.95c-3.36,2.02 -6.42,4.65 -10.94,6.56 -12.44,5.26 -33.83,3.52 -47.28,3.52 -1.47,-5.82 -4.19,-8.47 -6.62,-13.08 -6.04,-11.45 0.55,-2.68 -10.19,-18.42 -3.25,-4.76 -0.32,-0.54 -4.19,-5.33 -0.26,-0.32 -0.64,-0.74 -0.9,-1.06 -26.48,-33.72 -18.57,-18.99 -56.96,-33.17 0.43,-6.99 -0.77,-12.72 5.77,-9.6 -16.36,-3.67 1.35,4.02 -10.41,-12.69 -6.48,-9.21 0.57,-3.67 -7.26,-18 -2.6,-4.76 -4.49,-23.37 -4.94,-30.51l7.65 -50.05c4.47,-17.25 6.23,-23.64 16.56,-38.67 18.85,-27.42 7.36,-15.45 3.89,-18.79l-3.47 8.52c-9.85,12.32 -10.66,6.82 -19.17,34.15l-6.89 20.94c-1.9,9.43 3.24,2.5 -2.14,7.45z"/>
   <path class="fil6" d="M217.21 272.45c-3.1,1.27 -43.34,5.25 -56.61,-2.2 -2.67,-1.5 -3.79,-2.21 -6.16,-3.41l-6.63 -3.24 -0.49 -18.57c-10.99,-2.48 -5.1,-1.75 -8.36,-7.36 -8.12,-13.99 -5.98,3.32 -15.19,-11.69 -1.41,-2.31 -2.78,-6.14 -3.63,-9.51 -9.4,-0.07 -15.14,1.24 -19.05,-2.33 -3.61,13.32 -1.06,33.03 -0.5,47.93 -18.12,7.76 -21.67,18.76 -35.34,31.61 -6.44,-4.11 -2.79,-1.47 -9.47,-12.74 -0.06,15.02 -6.51,5.91 -3.98,18.65 -0.09,-1.39 0.35,-1.62 -1.21,-2.33 -0.06,-0.02 -0.51,-0.07 -0.56,-0.08l-2.07 0.99 0.12 3.93c24.63,-0.03 41.18,-0.25 67.19,-5.06 19.96,-1.73 42.06,-7.81 61.81,-11.99 10.24,-2.16 19.29,-4.27 29.65,-6.68 17.75,-4.13 4.28,-5.71 18.69,-7.55 6.81,-0.87 3.34,1.3 7.89,-2.01 -12.32,-3.93 -10.14,-9.63 -12.13,-21.38 -9.94,-58.79 -0.08,-84.5 -0.53,-89.43 -1.09,-11.88 1.66,-4.38 -4.35,-9.63 -0.14,11.6 -2.75,18.18 -4.34,30.59 -4.77,37.25 5.25,55.34 5.25,93.48z"/>
   <path class="fil4" d="M382.59 270.91c0.39,-0.98 0.54,-2.5 0.54,-2.51l3.2 -5.5c0.11,-0.22 0.37,-0.72 0.46,-0.94 0.06,-0.15 0.68,-3.07 1.18,-4.4 14.24,-1.82 7.4,-0.05 23.86,0.63 -19.92,-2.57 -28.38,-8.71 -32.5,-38.72 -1.69,-12.28 0.46,-22.27 3.94,-31.18 5.52,-14.17 13.64,-12.95 28.16,-8.69 -5.53,6.28 -3.52,5.25 -17.31,5.25 -3.64,5.7 -5.75,9.34 -6.02,19.15 -0.19,6.67 0.34,19.57 2.51,25.57 0.46,1.28 9.74,13.77 11.09,15.03 6.26,5.82 7.3,4.68 15.51,1.02 3.4,3.86 1,-1.56 2.57,3.85 1.76,6.03 -0.01,1.09 -0.65,1.15 4.32,-9.37 5.94,-19.15 5.47,-33.2l-10.45 -46.64c-1.89,-4.89 -34.91,-47.76 -57.01,6.12 -7.7,18.76 -2.34,52.94 6.36,71.64 4.17,8.97 9.18,19.66 19.09,22.38z"/>
   <path class="fil6" d="M285.8 356.06c-6.61,2.25 -20.98,12.99 -30.25,18.57 1.93,5.05 -3.71,4.18 2.04,4.18 -4.27,-4.76 -3,-3.07 -7.63,1.43l-5.52 10.88c14.42,8.39 4.23,-0.33 15.16,8.63l42.13 7.95c17.87,0.24 23.1,-0.03 36.39,-5.23 14.25,-5.57 5.91,-3.8 17.22,-9.93l4.78 -2.48c0.25,-0.13 0.76,-0.41 1,-0.53 0.22,-0.11 0.71,-0.37 0.92,-0.47 3.62,-1.75 6.79,-1.37 11.08,-4.4 5.94,-4.19 13.21,-9.42 14.65,-15.91 4.94,4.16 1.9,-2.6 1.2,3.36 4.67,-3.64 4.02,-2.39 7.93,-7.76 17.77,-24.38 25.21,-40.79 34.46,-71.63 -3.89,2.78 -3.51,3.35 -5.93,10.03 -1.6,4.41 -2.71,6.86 -4.57,10.78 -8.61,18.16 -6.75,5.21 -20.25,25.39 -1.55,2.32 -4.83,6.68 -7.35,8.58 -5.75,4.36 -2.61,-0.61 -8.62,6.3 -1.73,1.99 -0.63,1.6 -3.34,4.33 -4.14,4.19 -1.14,1.5 -4.71,3.46 -16.55,9.09 -16.79,14.95 -30.39,16.17l-44.09 -2.09c-4.44,-0.57 -18.54,-3.98 -20,-8.42 -0.24,-0.74 -0.96,-0.63 -1.44,-0.95l2.97 -5.61c0.8,-1.58 1.49,-3.02 2.16,-4.65z"/>
   <path class="fil7" d="M201.81 306.4c-8.05,1.6 -18.96,1.26 -23.8,4.46 -12.03,7.95 -5.29,30.22 3.64,38.24 0.1,0.09 2.98,2.36 3.27,2.6 5.71,4.74 6.83,7.16 15.08,7.63 18.69,1.07 39.15,-24.49 18.17,-46.87 -4.01,-4.28 -1.78,-3.71 -7.85,-3.69 -6.46,0.03 1.44,1.81 -4.11,0.36l-2.08 -0.98c-0.38,-0.2 -1.81,-1.37 -2.32,-1.76z"/>
   <path class="fil8" d="M48.09 302.1c-0.82,1.02 -1.45,1.87 -1.92,2.63 10.87,31.99 29.48,60.4 53.6,83.02l2.86 -3.18c-3.82,-15.92 -23.66,-37.33 -30.18,-51.29 -5.58,-11.93 -1.73,-15.02 -3.98,-22.09 13.34,-0.36 44.69,-5.71 57.92,-9.5l-11.12 -4.65c-26.01,4.81 -42.56,5.02 -67.19,5.06z"/>
   <path class="fil9" d="M210.17 341.81c-2.44,-13.4 -6.25,-22.25 -22.19,-23.73 -2.66,18.57 0.8,26.49 22.19,23.73z"/>
   <path class="fil10" d="M111.27 352.03l15.54 0.5c-0.65,-31.87 -37.41,-28.33 -15.54,-0.5z"/>
   <path class="fil11" d="M210.17 341.81c-21.39,2.76 -24.84,-5.15 -22.19,-23.73l-8.06 1.71c-3.09,22.8 6.53,33 29.25,30.1l1 -8.08z"/>
  </g>
  <g id="_1481762655984">
   <path class="fil1" d="M122.16 405.97c-1.98,-1.59 -4.22,-3.71 -4.93,-4.32 -0.71,-0.27 -1.41,-0.55 -2.1,-0.85 2.31,1.77 4.65,3.5 7.03,5.17zm-75.98 -101.24c0.46,-0.76 1.09,-1.61 1.92,-2.63l-0.12 -3.93c-8.99,-15.69 -6.83,-44.47 -8.06,-64.85 -0.63,-10.33 1.89,-22.58 4.02,-33.95 2.06,-11.03 7.19,-20.13 7.28,-29.81 4.41,4.89 1.13,-0.48 2.86,5.72l-0.72 31.89c-1.99,12.53 -0.85,25.85 -0.37,38.58l5.94 -24.35c0.17,-0.05 0.71,-0.21 0.9,-0.28l8.49 -4.46c0.41,-0.22 0.91,-0.45 1.32,-0.66l8.57 -4.88c9.7,-6.02 7.65,-3.17 7.82,-11.3 6.31,1.51 9.29,2.35 13.87,0.16 11.92,-35.49 11.75,-27.33 24.27,-52.33 0.46,0.32 1.08,0.68 1.4,0.92 0.32,0.23 0.99,0.62 1.37,0.92 0.36,0.29 0.91,0.62 1.28,0.95 0.45,0.4 1.77,1.64 2.15,2.13 4.19,5.35 1.17,1.25 3.01,7.18 3.33,10.67 -0.15,2.8 7.87,10.66 0.3,0.3 0.71,0.7 0.99,1.01l13.01 15.87c0.27,0.33 0.62,0.77 0.87,1.13 2.76,3.87 3.5,7.88 5.26,12.21 9.21,22.57 17.44,13.72 18.33,33.12 9.45,1.13 6.06,3.57 17.15,4.08 0.3,10.83 1.06,13.17 4.24,16.92 8.43,9.9 4.55,8.67 8.68,10.08 1.87,10.05 -0.34,0.31 2.97,2.48 2.5,1.64 2.08,2.28 4.47,5.16 0,-38.14 -10.02,-56.23 -5.25,-93.48 1.59,-12.4 4.2,-18.99 4.34,-30.59 5.37,-4.94 0.24,1.99 2.14,-7.45l6.89 -20.94c8.51,-27.33 9.32,-21.83 19.17,-34.15l3.47 -8.52c3.46,3.34 14.95,-8.64 -3.89,18.79 -10.33,15.02 -12.09,21.42 -16.56,38.67l-7.65 50.05c0.45,7.14 2.34,25.75 4.94,30.51 7.83,14.33 0.77,8.79 7.26,18 11.76,16.7 -5.95,9.02 10.41,12.69 -6.54,-3.12 -5.34,2.61 -5.77,9.6 38.39,14.17 30.48,-0.55 56.96,33.17 0.26,0.33 0.64,0.75 0.9,1.06 3.87,4.79 0.94,0.57 4.19,5.33 10.74,15.74 4.15,6.97 10.19,18.42 2.43,4.61 5.14,7.26 6.62,13.08 13.45,0 34.84,1.74 47.28,-3.52 4.52,-1.91 7.57,-4.54 10.94,-6.56l12.97 -5.95c7.72,-3.59 42.13,2.5 48.75,-59.59 2.82,-26.43 -1.76,-38.02 -4.31,-60.8 4.78,24.35 11.5,84.53 0.18,102.45 -9.25,30.84 -16.69,47.25 -34.46,71.63 -3.91,5.37 -3.26,4.12 -7.93,7.76 -4.31,11 -14.47,17.09 -21.78,23.97 -10.6,9.97 -8.83,5.64 -13.44,9.77 0.08,0.56 0.17,1.09 0.25,1.58 53.66,-36.7 88.88,-98.38 88.88,-168.3 0,-112.53 -91.22,-203.75 -203.75,-203.75 -112.53,0 -203.75,91.22 -203.75,203.75 0,22.95 3.8,45.02 10.8,65.6z"/>
   <path class="fil2" d="M233.31 268.82c-4.55,3.31 -1.08,1.14 -7.89,2.01 -14.41,1.83 -0.94,3.41 -18.69,7.55 -10.36,2.41 -19.41,4.51 -29.65,6.68 -19.75,4.18 -41.85,10.26 -61.81,11.99l11.12 4.65c-13.24,3.78 -44.59,9.14 -57.92,9.5 2.25,7.08 -1.6,10.16 3.98,22.09 6.52,13.96 26.36,35.37 30.18,51.29l-2.86 3.18c4.9,4.59 10.02,8.95 15.36,13.04 0.69,0.3 1.39,0.59 2.1,0.85 22.98,8.67 53.04,4.82 76.98,-1.92 11.77,-3.31 19.63,-6.66 31.23,-10.88 11.64,-4.23 19.84,-9.13 30.11,-14.22 9.27,-5.58 23.63,-16.32 30.25,-18.57 6.3,-16.36 23.29,-5.77 -2.42,-58.65 -4.57,-9.41 -9.21,-21.34 -16.2,-26.16 -10.8,-7.45 -22.43,-0.53 -33.86,-2.42z"/>
   <path class="fil3" d="M47.97 298.16l2.07 -0.99c0.06,0.01 0.51,0.05 0.56,0.08 1.57,0.71 1.12,0.94 1.21,2.33 -2.54,-12.74 3.91,-3.63 3.98,-18.65 6.68,11.27 3.03,8.63 9.47,12.74 13.68,-12.85 17.23,-23.85 35.34,-31.61 -0.57,-14.89 -3.12,-34.61 0.5,-47.93 3.91,3.58 9.65,2.26 19.05,2.33 0.84,3.36 2.21,7.2 3.63,9.51 9.21,15.01 7.07,-2.3 15.19,11.69 3.26,5.61 -2.63,4.88 8.36,7.36l0.49 18.57 6.63 3.24c2.38,1.2 3.49,1.91 6.16,3.41 13.27,7.46 53.51,3.47 56.61,2.2 -2.39,-2.88 -1.97,-3.52 -4.47,-5.16 -3.3,-2.17 -1.1,7.57 -2.97,-2.48 -4.13,-1.41 -0.25,-0.18 -8.68,-10.08 -3.19,-3.74 -3.95,-6.09 -4.24,-16.92 -11.08,-0.51 -7.7,-2.95 -17.15,-4.08 -0.89,-19.41 -9.11,-10.55 -18.33,-33.12 -1.77,-4.33 -2.5,-8.34 -5.26,-12.21 -0.25,-0.35 -0.6,-0.8 -0.87,-1.13l-13.01 -15.87c-0.29,-0.31 -0.69,-0.71 -0.99,-1.01 -8.03,-7.85 -4.55,0.02 -7.87,-10.66 -1.85,-5.93 1.18,-1.82 -3.01,-7.18 -0.38,-0.49 -1.69,-1.73 -2.15,-2.13 -0.38,-0.34 -0.92,-0.66 -1.28,-0.95 -0.38,-0.3 -1.05,-0.69 -1.37,-0.92 -0.32,-0.24 -0.94,-0.6 -1.4,-0.92 -12.53,25 -12.36,16.85 -24.27,52.33 -4.58,2.19 -7.55,1.35 -13.87,-0.16 -0.17,8.12 1.88,5.28 -7.82,11.3l-8.57 4.88c-0.41,0.21 -0.91,0.45 -1.32,0.66l-8.49 4.46c-0.19,0.07 -0.73,0.23 -0.9,0.28l-5.94 24.35c-0.48,-12.73 -1.62,-26.05 0.37,-38.58l0.72 -31.89c-1.73,-6.19 1.56,-0.83 -2.86,-5.72 -0.09,9.69 -5.22,18.78 -7.28,29.81 -2.13,11.37 -4.64,23.62 -4.02,33.95 1.24,20.38 -0.92,49.16 8.06,64.85z"/>
   <path class="fil4" d="M291.54 122.8c6.8,8.44 -3.29,7.76 7.69,11.26l-41.69 1.2 -0.68 4.7c0.3,66 8.5,90.77 62.03,99.47 4.52,1.04 3.3,1.48 8.12,1.52 6.77,0.06 3.41,0.87 6.32,-1.72l-1.79 11.51c0.83,-0.39 1.48,-1.65 1.63,-1.28l2.94 3.26c4.5,-1.99 5.26,3.11 4.7,-7.63 1.01,9.74 1.57,14.44 9.49,19.52 -10.55,-26.45 -13.98,-53.18 -8.97,-82.33 2.33,-13.53 6.7,-25.46 12.19,-33.95 0.58,-0.9 4.09,-5.25 5.42,-6.39 2.79,-2.41 4.3,-3.25 7.59,-4.58 8.89,-3.6 12.15,-1.74 21.1,-1.51 -3.03,-2.87 -1.99,-3.6 -11.96,-4.18 3.56,-0.52 8.1,3.4 1.34,-1.8 -2.25,-1.73 -0.14,-1.21 -5.35,-1.52 9.29,-2.41 6.16,-0.07 5.16,-3.5 -6.82,-2.07 -17.95,-2.27 -28.05,-13.8 -0.28,-0.32 -0.67,-0.84 -0.92,-1.14l-1.8 -2.47c-28.35,-0.15 -28.14,-3.24 -39.55,9.15 -5.22,5.67 -4.63,6.17 -14.96,6.21z"/>
   <path class="fil5" d="M255.55 374.62c-10.27,5.09 -18.47,9.99 -30.11,14.22 -11.6,4.22 -19.47,7.57 -31.23,10.88 -23.94,6.74 -54.01,10.59 -76.98,1.92 0.71,0.6 2.95,2.73 4.93,4.32 33.11,23.25 73.44,36.91 116.97,36.91 42.61,0 82.16,-13.09 114.87,-35.46 -0.08,-0.49 -0.16,-1.01 -0.25,-1.58 4.61,-4.13 2.84,0.2 13.44,-9.77 7.31,-6.87 17.47,-12.97 21.78,-23.97 0.71,-5.96 3.74,0.8 -1.2,-3.36 -1.44,6.49 -8.71,11.72 -14.65,15.91 -4.29,3.03 -7.47,2.65 -11.08,4.4 -0.2,0.1 -0.7,0.36 -0.92,0.47 -0.24,0.12 -0.75,0.4 -1,0.53l-4.78 2.48c-11.31,6.13 -2.97,4.36 -17.22,9.93 -13.3,5.2 -18.52,5.47 -36.39,5.23l-42.13 -7.95c-10.94,-8.96 -0.74,-0.24 -15.16,-8.63l5.52 -10.88c4.63,-4.5 3.36,-6.19 7.63,-1.43 -5.75,0 -0.11,0.88 -2.04,-4.18z"/>
   <path class="fil3" d="M216.3 148.38c6.01,5.25 3.26,-2.24 4.35,9.63 0.45,4.93 -9.41,30.64 0.53,89.43 1.99,11.75 -0.2,17.45 12.13,21.38 11.43,1.89 23.06,-5.03 33.86,2.42 7,4.82 11.63,16.76 16.2,26.16 25.71,52.89 8.72,42.29 2.42,58.65 -0.67,1.64 -1.36,3.08 -2.16,4.65l-2.97 5.61c0.48,0.31 1.2,0.21 1.44,0.95 1.46,4.45 15.56,7.85 20,8.42l44.09 2.09c13.6,-1.22 13.84,-7.08 30.39,-16.17 3.57,-1.96 0.57,0.73 4.71,-3.46 2.71,-2.74 1.62,-2.35 3.34,-4.33 6.01,-6.92 2.87,-1.95 8.62,-6.3 2.51,-1.9 5.79,-6.26 7.35,-8.58 13.5,-20.18 11.64,-7.23 20.25,-25.39 1.86,-3.92 2.97,-6.37 4.57,-10.78 2.42,-6.68 2.04,-7.25 5.93,-10.03 11.32,-17.92 4.59,-78.1 -0.18,-102.45 2.55,22.77 7.13,34.36 4.31,60.8 -6.62,62.09 -41.02,56.01 -48.75,59.59l-12.97 5.95c-3.36,2.02 -6.42,4.65 -10.94,6.56 -12.44,5.26 -33.83,3.52 -47.28,3.52 -1.47,-5.82 -4.19,-8.47 -6.62,-13.08 -6.04,-11.45 0.55,-2.68 -10.19,-18.42 -3.25,-4.76 -0.32,-0.54 -4.19,-5.33 -0.26,-0.32 -0.64,-0.74 -0.9,-1.06 -26.48,-33.72 -18.57,-18.99 -56.96,-33.17 0.43,-6.99 -0.77,-12.72 5.77,-9.6 -16.36,-3.67 1.35,4.02 -10.41,-12.69 -6.48,-9.21 0.57,-3.67 -7.26,-18 -2.6,-4.76 -4.49,-23.37 -4.94,-30.51l7.65 -50.05c4.47,-17.25 6.23,-23.64 16.56,-38.67 18.85,-27.42 7.36,-15.45 3.89,-18.79l-3.47 8.52c-9.85,12.32 -10.66,6.82 -19.17,34.15l-6.89 20.94c-1.9,9.43 3.24,2.5 -2.14,7.45z"/>
   <path class="fil6" d="M217.21 272.45c-3.1,1.27 -43.34,5.25 -56.61,-2.2 -2.67,-1.5 -3.79,-2.21 -6.16,-3.41l-6.63 -3.24 -0.49 -18.57c-10.99,-2.48 -5.1,-1.75 -8.36,-7.36 -8.12,-13.99 -5.98,3.32 -15.19,-11.69 -1.41,-2.31 -2.78,-6.14 -3.63,-9.51 -9.4,-0.07 -15.14,1.24 -19.05,-2.33 -3.61,13.32 -1.06,33.03 -0.5,47.93 -18.12,7.76 -21.67,18.76 -35.34,31.61 -6.44,-4.11 -2.79,-1.47 -9.47,-12.74 -0.06,15.02 -6.51,5.91 -3.98,18.65 -0.09,-1.39 0.35,-1.62 -1.21,-2.33 -0.06,-0.02 -0.51,-0.07 -0.56,-0.08l-2.07 0.99 0.12 3.93c24.63,-0.03 41.18,-0.25 67.19,-5.06 19.96,-1.73 42.06,-7.81 61.81,-11.99 10.24,-2.16 19.29,-4.27 29.65,-6.68 17.75,-4.13 4.28,-5.71 18.69,-7.55 6.81,-0.87 3.34,1.3 7.89,-2.01 -12.32,-3.93 -10.14,-9.63 -12.13,-21.38 -9.94,-58.79 -0.08,-84.5 -0.53,-89.43 -1.09,-11.88 1.66,-4.38 -4.35,-9.63 -0.14,11.6 -2.75,18.18 -4.34,30.59 -4.77,37.25 5.25,55.34 5.25,93.48z"/>
   <path class="fil4" d="M382.59 270.91c0.39,-0.98 0.54,-2.5 0.54,-2.51l3.2 -5.5c0.11,-0.22 0.37,-0.72 0.46,-0.94 0.06,-0.15 0.68,-3.07 1.18,-4.4 14.24,-1.82 7.4,-0.05 23.86,0.63 -19.92,-2.57 -28.38,-8.71 -32.5,-38.72 -1.69,-12.28 0.46,-22.27 3.94,-31.18 5.52,-14.17 13.64,-12.95 28.16,-8.69 -5.53,6.28 -3.52,5.25 -17.31,5.25 -3.64,5.7 -5.75,9.34 -6.02,19.15 -0.19,6.67 0.34,19.57 2.51,25.57 0.46,1.28 9.74,13.77 11.09,15.03 6.26,5.82 7.3,4.68 15.51,1.02 3.4,3.86 1,-1.56 2.57,3.85 1.76,6.03 -0.01,1.09 -0.65,1.15 4.32,-9.37 5.94,-19.15 5.47,-33.2l-10.45 -46.64c-1.89,-4.89 -34.91,-47.76 -57.01,6.12 -7.7,18.76 -2.34,52.94 6.36,71.64 4.17,8.97 9.18,19.66 19.09,22.38z"/>
   <path class="fil6" d="M285.8 356.06c-6.61,2.25 -20.98,12.99 -30.25,18.57 1.93,5.05 -3.71,4.18 2.04,4.18 -4.27,-4.76 -3,-3.07 -7.63,1.43l-5.52 10.88c14.42,8.39 4.23,-0.33 15.16,8.63l42.13 7.95c17.87,0.24 23.1,-0.03 36.39,-5.23 14.25,-5.57 5.91,-3.8 17.22,-9.93l4.78 -2.48c0.25,-0.13 0.76,-0.41 1,-0.53 0.22,-0.11 0.71,-0.37 0.92,-0.47 3.62,-1.75 6.79,-1.37 11.08,-4.4 5.94,-4.19 13.21,-9.42 14.65,-15.91 4.94,4.16 1.9,-2.6 1.2,3.36 4.67,-3.64 4.02,-2.39 7.93,-7.76 17.77,-24.38 25.21,-40.79 34.46,-71.63 -3.89,2.78 -3.51,3.35 -5.93,10.03 -1.6,4.41 -2.71,6.86 -4.57,10.78 -8.61,18.16 -6.75,5.21 -20.25,25.39 -1.55,2.32 -4.83,6.68 -7.35,8.58 -5.75,4.36 -2.61,-0.61 -8.62,6.3 -1.73,1.99 -0.63,1.6 -3.34,4.33 -4.14,4.19 -1.14,1.5 -4.71,3.46 -16.55,9.09 -16.79,14.95 -30.39,16.17l-44.09 -2.09c-4.44,-0.57 -18.54,-3.98 -20,-8.42 -0.24,-0.74 -0.96,-0.63 -1.44,-0.95l2.97 -5.61c0.8,-1.58 1.49,-3.02 2.16,-4.65z"/>
   <path class="fil7" d="M201.81 306.4c-8.05,1.6 -18.96,1.26 -23.8,4.46 -12.03,7.95 -5.29,30.22 3.64,38.24 0.1,0.09 2.98,2.36 3.27,2.6 5.71,4.74 6.83,7.16 15.08,7.63 18.69,1.07 39.15,-24.49 18.17,-46.87 -4.01,-4.28 -1.78,-3.71 -7.85,-3.69 -6.46,0.03 1.44,1.81 -4.11,0.36l-2.08 -0.98c-0.38,-0.2 -1.81,-1.37 -2.32,-1.76z"/>
   <path class="fil8" d="M48.09 302.1c-0.82,1.02 -1.45,1.87 -1.92,2.63 10.87,31.99 29.48,60.4 53.6,83.02l2.86 -3.18c-3.82,-15.92 -23.66,-37.33 -30.18,-51.29 -5.58,-11.93 -1.73,-15.02 -3.98,-22.09 13.34,-0.36 44.69,-5.71 57.92,-9.5l-11.12 -4.65c-26.01,4.81 -42.56,5.02 -67.19,5.06z"/>
   <path class="fil9" d="M210.17 341.81c-2.44,-13.4 -6.25,-22.25 -22.19,-23.73 -2.66,18.57 0.8,26.49 22.19,23.73z"/>
   <path class="fil10" d="M111.27 352.03l15.54 0.5c-0.65,-31.87 -37.41,-28.33 -15.54,-0.5z"/>
   <path class="fil11" d="M210.17 341.81c-21.39,2.76 -24.84,-5.15 -22.19,-23.73l-8.06 1.71c-3.09,22.8 6.53,33 29.25,30.1l1 -8.08z"/>
  </g>
 </g>
</svg>
